<svg width="12" height="12" viewBox="0 0 12 12" fill="none" xmlns="http://www.w3.org/2000/svg">
<path fill-rule="evenodd" clip-rule="evenodd" d="M10.4856 0.959961H1.51441C1.20822 0.959961 0.960007 1.20817 0.960007 1.51436V10.4856C0.960007 10.6326 1.01842 10.7736 1.12239 10.8776C1.22636 10.9816 1.36737 11.04 1.51441 11.04H6.34273V7.13396H5.03233V5.62196H6.34273V4.48796C6.28778 3.94904 6.47382 3.41339 6.85099 3.02455C7.22817 2.63571 7.7579 2.43345 8.29825 2.47196C8.69052 2.46955 9.08261 2.48974 9.47257 2.53244V3.89324H8.67121C8.03617 3.89324 7.91521 4.19564 7.91521 4.63412V5.60684H9.42721L9.23065 7.11884H7.91521V11.04H10.4856C10.6326 11.04 10.7737 10.9816 10.8776 10.8776C10.9816 10.7736 11.04 10.6326 11.04 10.4856V1.51436C11.04 1.36732 10.9816 1.22631 10.8776 1.12234C10.7737 1.01837 10.6326 0.959961 10.4856 0.959961Z" fill="#424344"/>
</svg>
