<svg width="13" height="13" viewBox="0 0 13 13" fill="none" xmlns="http://www.w3.org/2000/svg">
<path fill-rule="evenodd" clip-rule="evenodd" d="M10.6967 0.999951H1.80324C1.60134 0.997147 1.4066 1.07467 1.26186 1.21547C1.11713 1.35627 1.03426 1.5488 1.03149 1.7507V10.7492C1.03426 10.9511 1.11713 11.1436 1.26186 11.2844C1.4066 11.4252 1.60134 11.5028 1.80324 11.5H10.6967C10.8986 11.5028 11.0934 11.4252 11.2381 11.2844C11.3829 11.1436 11.4657 10.9511 11.4685 10.7492V1.7507C11.4657 1.5488 11.3829 1.35627 11.2381 1.21547C11.0934 1.07467 10.8986 0.997147 10.6967 0.999951ZM4.19724 9.78845H2.62224V5.06345H4.19724V9.78845ZM3.40974 4.40195C2.95742 4.40195 2.59074 4.03527 2.59074 3.58295C2.59074 3.13063 2.95742 2.76395 3.40974 2.76395C3.72449 2.72826 4.03184 2.87609 4.20043 3.14425C4.36902 3.41242 4.36902 3.75348 4.20043 4.02165C4.03184 4.28982 3.72449 4.43765 3.40974 4.40195ZM9.87774 9.78845H8.30274V7.2527C8.30274 6.61745 8.07699 6.2027 7.50474 6.2027C7.14201 6.20536 6.81935 6.43374 6.69624 6.77495C6.65516 6.89835 6.63736 7.0283 6.64374 7.1582V9.7832H5.06874C5.06874 9.7832 5.06874 5.4887 5.06874 5.0582H6.64374V5.72495C6.93533 5.21899 7.48293 4.91589 8.06649 4.93745C9.11649 4.93745 9.87774 5.6147 9.87774 7.06895V9.78845Z" fill="#424344"/>
</svg>
