<svg width="13" height="13" viewBox="0 0 13 13" fill="none" xmlns="http://www.w3.org/2000/svg">
<path fill-rule="evenodd" clip-rule="evenodd" d="M9.0535 2.8165C8.79869 2.8165 8.56897 2.96999 8.47146 3.20541C8.37394 3.44082 8.42784 3.7118 8.60802 3.89198C8.7882 4.07216 9.05918 4.12606 9.29459 4.02854C9.53001 3.93103 9.6835 3.70131 9.6835 3.4465C9.6835 3.09856 9.40144 2.8165 9.0535 2.8165ZM11.4685 4.087C11.4583 3.65141 11.3767 3.22044 11.227 2.81125C11.0935 2.46114 10.8857 2.14412 10.618 1.882C10.358 1.6129 10.0403 1.40644 9.68875 1.27825C9.28065 1.12398 8.8492 1.04054 8.413 1.0315C7.8565 1 7.678 1 6.25 1C4.822 1 4.6435 1 4.087 1.0315C3.6508 1.04054 3.21936 1.12398 2.81125 1.27825C2.46038 1.40774 2.14289 1.61402 1.882 1.882C1.6129 2.14197 1.40644 2.45973 1.27825 2.81125C1.12398 3.21936 1.04054 3.6508 1.0315 4.087C1 4.6435 1 4.822 1 6.25C1 7.678 1 7.8565 1.0315 8.413C1.04054 8.8492 1.12398 9.28065 1.27825 9.68875C1.40644 10.0403 1.6129 10.358 1.882 10.618C2.14289 10.886 2.46038 11.0923 2.81125 11.2218C3.21936 11.376 3.6508 11.4595 4.087 11.4685C4.6435 11.5 4.822 11.5 6.25 11.5C7.678 11.5 7.8565 11.5 8.413 11.4685C8.8492 11.4595 9.28065 11.376 9.68875 11.2218C10.0403 11.0936 10.358 10.8871 10.618 10.618C10.8869 10.3569 11.0949 10.0396 11.227 9.68875C11.3767 9.27956 11.4583 8.84859 11.4685 8.413C11.4685 7.8565 11.5 7.678 11.5 6.25C11.5 4.822 11.5 4.6435 11.4685 4.087ZM10.5235 8.35C10.5197 8.68326 10.4593 9.01344 10.345 9.3265C10.2612 9.55498 10.1265 9.76142 9.95125 9.93025C9.78096 10.1038 9.57494 10.2381 9.3475 10.324C9.03444 10.4383 8.70426 10.4987 8.371 10.5025C7.846 10.5287 7.65175 10.534 6.271 10.534C4.89025 10.534 4.696 10.534 4.171 10.5025C3.82497 10.509 3.48041 10.4557 3.1525 10.345C2.93504 10.2547 2.73846 10.1207 2.575 9.95125C2.40075 9.78259 2.26779 9.57598 2.1865 9.3475C2.05832 9.02995 1.98723 8.69227 1.9765 8.35C1.9765 7.825 1.945 7.63075 1.945 6.25C1.945 4.86925 1.945 4.675 1.9765 4.15C1.97885 3.8093 2.04105 3.47167 2.16025 3.1525C2.25267 2.9309 2.39454 2.73337 2.575 2.575C2.7345 2.39449 2.93163 2.25113 3.1525 2.155C3.47251 2.03952 3.8098 1.97917 4.15 1.9765C4.675 1.9765 4.86925 1.945 6.25 1.945C7.63075 1.945 7.825 1.945 8.35 1.9765C8.68326 1.98032 9.01344 2.04068 9.3265 2.155C9.56507 2.24354 9.7792 2.38749 9.95125 2.575C10.1233 2.73627 10.2577 2.93343 10.345 3.1525C10.4617 3.47219 10.5221 3.80968 10.5235 4.15C10.5497 4.675 10.555 4.86925 10.555 6.25C10.555 7.63075 10.5497 7.825 10.5235 8.35ZM6.25 3.55675C4.76325 3.55965 3.56007 4.76674 3.562 6.25349C3.56393 7.74025 4.77024 8.94421 6.257 8.94324C7.74375 8.94228 8.9485 7.73676 8.9485 6.25C8.9499 5.53437 8.66588 4.84771 8.15936 4.34218C7.65283 3.83664 6.96563 3.55395 6.25 3.55675ZM6.25 7.99825C5.28447 7.99825 4.50175 7.21553 4.50175 6.25C4.50175 5.28447 5.28447 4.50175 6.25 4.50175C7.21553 4.50175 7.99825 5.28447 7.99825 6.25C7.99825 6.71366 7.81406 7.15834 7.4862 7.4862C7.15834 7.81406 6.71366 7.99825 6.25 7.99825Z" fill="#424344"/>
</svg>
