<svg width="13" height="13" viewBox="0 0 13 13" fill="none" xmlns="http://www.w3.org/2000/svg">
<path fill-rule="evenodd" clip-rule="evenodd" d="M11.5 2.9778C11.1054 3.14991 10.688 3.26368 10.261 3.31558C10.7115 3.045 11.0492 2.61933 11.2113 2.11753C10.7879 2.37089 10.3244 2.5494 9.841 2.6453C9.17644 1.92081 8.10888 1.73924 7.24424 2.20365C6.3796 2.66806 5.93632 3.66112 6.166 4.61919C4.43474 4.53116 2.82213 3.70812 1.72975 2.35503C1.5403 2.68761 1.44075 3.06426 1.441 3.44753C1.43964 4.17043 1.79832 4.84603 2.3965 5.24725C2.05419 5.23788 1.71919 5.14554 1.42 4.97808V5.00447C1.42529 6.03257 2.14945 6.91499 3.1525 7.11558C2.96521 7.17288 2.77076 7.20309 2.575 7.2053C2.43949 7.20371 2.30432 7.19136 2.17075 7.16836C2.45476 8.04771 3.26199 8.64945 4.1815 8.66725C3.42403 9.26642 2.48884 9.59342 1.525 9.59614C1.34951 9.59671 1.17416 9.58614 1 9.56447C1.98407 10.2032 3.13088 10.5423 4.30225 10.5409C5.93514 10.5579 7.50631 9.91443 8.66248 8.75512C9.81865 7.59581 10.4628 6.01798 10.45 4.37641C10.45 4.28669 10.45 4.19169 10.45 4.09669C10.862 3.78784 11.2173 3.40922 11.5 2.9778Z" fill="#424344"/>
</svg>
