<svg width="154" height="35" viewBox="0 0 154 35" fill="none" xmlns="http://www.w3.org/2000/svg">
<path d="M153.27 9.3063C153.27 10.0233 153.27 10.7077 153.27 11.4246C152.781 14.6836 151.216 17.4537 149.228 20.0283C146.393 23.6784 142.939 26.5789 138.93 28.8276C138.441 29.1209 137.92 29.3816 137.366 29.5771C137.072 29.6749 136.681 29.6749 136.356 29.6097C136.03 29.5445 135.932 29.2186 136.16 28.9579C136.323 28.7624 136.551 28.5668 136.779 28.4365C140.853 26.0574 144.112 22.831 146.752 18.9203C147.892 17.193 148.707 15.3028 149.066 13.2497C149.261 12.2068 149.326 11.1313 149.066 10.0885C148.577 7.97012 147.175 6.82948 145.122 6.37322C143.884 6.07991 142.613 6.21028 141.374 6.40581C138.669 6.82948 136.062 6.60135 133.553 5.36294C132.673 4.93928 131.76 4.51561 130.815 4.25489C128.664 3.63568 126.579 3.86381 124.786 5.36294C123.417 6.50358 122.603 8.00271 122.309 9.76256C121.723 13.2497 122.44 16.476 124.656 19.3114C125.014 19.8002 125.503 20.1913 125.992 20.5824C126.383 20.9083 126.416 20.9083 126.676 20.4194C128.013 18.1707 129.675 16.2479 131.826 14.7814C133.357 13.7385 135.019 12.9889 136.877 12.7934C137.561 12.7282 138.246 12.6956 138.898 12.9564C139.908 13.3474 140.397 14.1296 140.266 15.205C140.136 16.4435 139.484 17.4211 138.669 18.3337C137.496 19.6698 135.964 20.5498 134.4 21.2993C132.673 22.1141 130.88 22.6681 129.023 22.9614C128.827 22.994 128.599 23.1244 128.469 23.2547C127.426 24.2976 126.807 25.6338 126.318 27.0025C125.829 28.5017 125.568 30.0334 125.536 31.5977C125.503 32.2169 125.536 32.8687 125.503 33.5205C125.503 33.6834 125.471 33.879 125.373 34.0419C125.242 34.3352 124.786 34.3352 124.688 34.0419C124.493 33.4227 124.297 32.7709 124.232 32.1191C123.841 28.795 124.395 25.6012 125.731 22.5377C125.796 22.3748 125.927 22.2118 125.666 22.0489C122.994 20.6475 121.234 18.464 120.191 15.6613C119.05 12.5979 118.822 9.43666 119.865 6.27545C120.549 4.25489 121.69 2.56022 123.613 1.45217C124.656 0.832967 125.796 0.539658 126.97 0.376709C127.752 0.376709 128.501 0.376709 129.284 0.376709C131.206 0.702607 132.999 1.38699 134.726 2.23432C137.235 3.47273 139.875 3.73345 142.645 3.40756C144.079 3.24461 145.546 3.08166 146.98 3.11425C149.978 3.17943 152.585 5.46071 153.172 8.42638C153.172 8.6871 153.204 9.01299 153.27 9.3063ZM128.99 21.56C129.055 21.5926 129.088 21.5926 129.088 21.5926C131.923 21.1038 134.335 19.898 136.29 17.747C136.779 17.193 137.105 16.5738 137.138 15.8243C137.138 15.0421 136.551 14.5532 135.769 14.6836C135.052 14.814 134.433 15.1073 133.846 15.5309C132.608 16.3783 131.695 17.4863 130.88 18.7247C130.229 19.6047 129.642 20.5824 128.99 21.56Z" fill="white"/>
<path d="M9.90728 18.3012C9.90728 18.399 9.90728 18.4967 9.90728 18.5945C9.90728 18.6923 9.8747 18.7575 9.8747 18.8226C9.84211 18.8878 9.84211 18.953 9.80952 18.9856C9.77693 19.0508 9.74434 19.0834 9.64657 19.1485C9.58139 19.2137 9.41844 19.3115 9.19031 19.4744C8.96218 19.6048 8.70147 19.7677 8.34298 19.8981C8.01708 20.0285 7.626 20.1588 7.20234 20.2566C6.77867 20.3544 6.28982 20.3869 5.80098 20.3869C4.92105 20.3869 4.10631 20.224 3.38933 19.9307C2.67236 19.6374 2.05316 19.2137 1.56431 18.6271C1.07546 18.0405 0.684384 17.3561 0.391076 16.5088C0.130358 15.6614 0 14.6837 0 13.5757C0 12.435 0.13036 11.4248 0.423668 10.5448C0.716976 9.66492 1.10805 8.91536 1.66208 8.29615C2.18351 7.67695 2.80272 7.22069 3.55228 6.89479C4.30185 6.56889 5.084 6.40594 5.99651 6.40594C6.38759 6.40594 6.77867 6.43854 7.13715 6.50372C7.49564 6.56889 7.85413 6.66666 8.18003 6.79702C8.50593 6.89479 8.76664 7.02515 9.02736 7.1881C9.28808 7.35105 9.45103 7.44882 9.5488 7.54659C9.64657 7.64436 9.71174 7.70953 9.74433 7.77471C9.77692 7.83989 9.80952 7.87248 9.80952 7.93766C9.84211 8.00284 9.8421 8.06802 9.8421 8.16579C9.8421 8.26356 9.8421 8.36133 9.8421 8.49169C9.8421 8.62205 9.84211 8.75241 9.80952 8.85018C9.80952 8.94795 9.77692 9.04572 9.74433 9.1109C9.71174 9.17608 9.67916 9.24125 9.64657 9.27384C9.61398 9.30643 9.5488 9.30643 9.51621 9.30643C9.41844 9.30643 9.28808 9.24125 9.09254 9.1109C8.92959 8.98054 8.70147 8.81758 8.40816 8.65464C8.11485 8.49169 7.78895 8.32874 7.39787 8.19838C7.0068 8.06802 6.51795 8.00284 5.96393 8.00284C5.34472 8.00284 4.79069 8.1332 4.30185 8.36133C3.813 8.58946 3.38934 8.94795 3.03085 9.43679C2.67236 9.89305 2.41164 10.4797 2.2161 11.164C2.02057 11.8484 1.9228 12.6306 1.9228 13.4779C1.9228 14.3253 2.02057 15.1074 2.2161 15.7592C2.41164 16.411 2.67236 16.965 3.03085 17.4213C3.38934 17.8775 3.813 18.2034 4.30185 18.4316C4.82328 18.6597 5.37731 18.7901 6.0291 18.7901C6.58313 18.7901 7.03938 18.7249 7.46305 18.5945C7.85413 18.4642 8.21262 18.3012 8.50593 18.1383C8.79924 17.9753 9.02736 17.8124 9.2229 17.682C9.41844 17.5516 9.5488 17.4865 9.64657 17.4865C9.71175 17.4865 9.74434 17.4865 9.77693 17.519C9.80952 17.5516 9.84211 17.5842 9.8747 17.6494C9.90729 17.7146 9.90728 17.7798 9.90728 17.9101C9.90728 18.0079 9.90728 18.1383 9.90728 18.3012Z" fill="white"/>
<path d="M19.2605 19.9631C19.2605 20.0608 19.2279 20.126 19.1627 20.1586C19.0975 20.1912 19.0323 20.2238 18.9346 20.2564C18.8368 20.289 18.7064 20.289 18.5109 20.289C18.3154 20.289 18.185 20.289 18.0872 20.2564C17.9895 20.2238 17.8917 20.1912 17.8591 20.1586C17.7939 20.126 17.7939 20.0608 17.7939 19.9631V19.018C17.3703 19.4742 16.914 19.8001 16.4252 20.0608C15.9037 20.3216 15.3823 20.4193 14.7957 20.4193C14.3068 20.4193 13.8506 20.3541 13.4269 20.2238C13.0358 20.0934 12.6773 19.8979 12.384 19.6698C12.0907 19.409 11.8626 19.1157 11.7322 18.7572C11.5693 18.3988 11.5041 18.0077 11.5041 17.5514C11.5041 17.03 11.6019 16.5411 11.83 16.1501C12.0581 15.759 12.3514 15.4331 12.7751 15.1724C13.1662 14.9117 13.6876 14.7161 14.2742 14.5858C14.8608 14.4554 15.5126 14.3902 16.2622 14.3902H17.5658V13.6407C17.5658 13.2822 17.5332 12.9563 17.4354 12.663C17.3703 12.3697 17.2399 12.1415 17.077 11.9786C16.914 11.783 16.6859 11.6527 16.3926 11.5549C16.1319 11.4571 15.7734 11.4245 15.3823 11.4245C14.9586 11.4245 14.5675 11.4897 14.2416 11.5875C13.9157 11.6853 13.5898 11.8156 13.3617 11.9134C13.101 12.0438 12.9055 12.1415 12.7099 12.2393C12.547 12.3371 12.4166 12.4022 12.3188 12.4022C12.2537 12.4022 12.2211 12.4022 12.1559 12.3697C12.1233 12.3371 12.0907 12.3045 12.0581 12.2393C12.0255 12.1741 11.993 12.1089 11.993 12.0112C11.993 11.9134 11.9604 11.8156 11.9604 11.7179C11.9604 11.5549 11.9604 11.392 11.993 11.2942C12.0255 11.1964 12.0907 11.0986 12.1559 11.0009C12.2537 10.9031 12.4166 10.8053 12.6447 10.675C12.8729 10.5446 13.1336 10.4469 13.4595 10.3491C13.7528 10.2513 14.0787 10.1536 14.4372 10.0884C14.7957 10.0232 15.1542 9.9906 15.5126 9.9906C16.197 9.9906 16.7836 10.0558 17.2399 10.2187C17.7287 10.3817 18.0872 10.6098 18.4131 10.9031C18.7064 11.1964 18.9346 11.5875 19.0649 12.0112C19.1953 12.4674 19.2605 12.9563 19.2605 13.5755V19.9631V19.9631ZM17.5332 15.6286H16.0341C15.5452 15.6286 15.1542 15.6612 14.7957 15.759C14.4372 15.8242 14.1439 15.9545 13.9157 16.1175C13.6876 16.2804 13.5247 16.476 13.3943 16.6715C13.2965 16.8996 13.2314 17.1603 13.2314 17.4211C13.2314 17.9099 13.3943 18.301 13.6876 18.5943C14.0135 18.8876 14.4372 19.018 14.9912 19.018C15.4475 19.018 15.8711 18.8876 16.2622 18.6595C16.6533 18.4313 17.077 18.0729 17.5006 17.584V15.6286H17.5332Z" fill="white"/>
<path d="M31.1557 15.0746C31.1557 15.8893 31.0579 16.6389 30.895 17.3233C30.732 17.9751 30.4387 18.5291 30.1128 19.018C29.7543 19.4742 29.3307 19.8327 28.8092 20.0934C28.2878 20.3541 27.7012 20.4519 27.0494 20.4519C26.7561 20.4519 26.4954 20.4193 26.2672 20.3541C26.0391 20.289 25.811 20.2238 25.5829 20.0934C25.3547 19.9631 25.1266 19.8327 24.8985 19.6372C24.6703 19.4416 24.4422 19.2461 24.1815 18.9854V23.7109C24.1815 23.7761 24.1815 23.8087 24.1489 23.8738C24.1163 23.9064 24.0837 23.939 24.0185 23.9716C23.9534 24.0042 23.8556 24.0368 23.7578 24.0368C23.6601 24.0368 23.4971 24.0694 23.3342 24.0694C23.1712 24.0694 23.0409 24.0694 22.9105 24.0368C22.8127 24.0368 22.715 24.0042 22.6498 23.9716C22.5846 23.939 22.552 23.9064 22.5194 23.8738C22.4868 23.8412 22.4868 23.7761 22.4868 23.7109V10.4794C22.4868 10.4143 22.4868 10.3817 22.5194 10.3165C22.552 10.2839 22.5846 10.2513 22.6498 10.2187C22.715 10.1861 22.7801 10.1861 22.8779 10.1535C22.9757 10.1535 23.106 10.1535 23.2364 10.1535C23.3993 10.1535 23.4971 10.1535 23.5949 10.1535C23.6927 10.1535 23.7578 10.1861 23.823 10.2187C23.8882 10.2513 23.9208 10.2839 23.9534 10.3165C23.986 10.3491 23.986 10.4143 23.986 10.4794V11.7504C24.2793 11.4571 24.54 11.1964 24.8333 10.9683C25.094 10.7402 25.3547 10.5772 25.648 10.4143C25.9088 10.2839 26.2021 10.1536 26.4954 10.0884C26.7887 10.0232 27.082 9.9906 27.4079 9.9906C28.0923 9.9906 28.6789 10.121 29.1677 10.3817C29.6566 10.6424 30.0477 11.0009 30.341 11.4897C30.6343 11.946 30.8624 12.5 31.0253 13.1192C31.0905 13.7384 31.1557 14.3902 31.1557 15.0746ZM29.3633 15.2701C29.3633 14.7813 29.3307 14.325 29.2655 13.8688C29.2003 13.4125 29.07 13.0214 28.8744 12.663C28.6789 12.3045 28.4508 12.0438 28.1574 11.8156C27.8641 11.6201 27.4731 11.4897 27.0168 11.4897C26.7887 11.4897 26.5605 11.5223 26.365 11.5875C26.1369 11.6527 25.9088 11.7504 25.7132 11.9134C25.4851 12.0438 25.257 12.2393 24.9962 12.4674C24.7355 12.6955 24.4748 12.9889 24.2141 13.3473V17.1278C24.7029 17.7144 25.1592 18.1706 25.5829 18.4639C26.0065 18.7572 26.4628 18.9202 26.9516 18.9202C27.3753 18.9202 27.7664 18.8224 28.0923 18.5943C28.4182 18.3988 28.6463 18.1055 28.8418 17.747C29.0374 17.3885 29.1677 16.9974 29.2655 16.5737C29.2981 16.1501 29.3633 15.7264 29.3633 15.2701Z" fill="white"/>
<path d="M35.7182 7.28567C35.7182 7.67675 35.6531 7.97006 35.4901 8.133C35.3272 8.29595 35.0665 8.36113 34.6428 8.36113C34.2517 8.36113 33.9584 8.29595 33.7954 8.133C33.6325 8.00265 33.5673 7.70934 33.5673 7.31826C33.5673 6.92718 33.6325 6.63387 33.7954 6.47093C33.9584 6.30798 34.2191 6.2428 34.6428 6.2428C35.0339 6.2428 35.3272 6.30798 35.4901 6.47093C35.6205 6.60128 35.7182 6.89459 35.7182 7.28567ZM35.5227 19.9631C35.5227 20.0283 35.5227 20.0609 35.4901 20.0934C35.4575 20.126 35.4249 20.1586 35.3598 20.1912C35.2946 20.2238 35.1968 20.2564 35.099 20.2564C35.0013 20.2564 34.8383 20.289 34.6754 20.289C34.5124 20.289 34.3821 20.289 34.2517 20.2564C34.1539 20.2564 34.0562 20.2238 33.991 20.1912C33.9258 20.1586 33.8932 20.126 33.8606 20.0934C33.828 20.0609 33.828 19.9957 33.828 19.9631V10.4795C33.828 10.4143 33.828 10.3817 33.8606 10.3491C33.8932 10.3165 33.9258 10.2839 33.991 10.2513C34.0562 10.2187 34.1539 10.1862 34.2517 10.1862C34.3495 10.1862 34.5124 10.1536 34.6754 10.1536C34.8383 10.1536 35.0013 10.1536 35.099 10.1862C35.1968 10.1862 35.2946 10.2187 35.3598 10.2513C35.4249 10.2839 35.4575 10.3165 35.4901 10.3491C35.5227 10.3817 35.5227 10.4469 35.5227 10.4795V19.9631Z" fill="white"/>
<path d="M43.6376 19.2788C43.6376 19.4743 43.6376 19.6373 43.6051 19.7676C43.5725 19.898 43.5399 19.9632 43.4747 20.0283C43.4095 20.0935 43.3443 20.1261 43.214 20.1913C43.1162 20.2565 42.9858 20.289 42.8229 20.3216C42.6925 20.3542 42.5296 20.3868 42.3666 20.3868C42.2037 20.4194 42.0407 20.4194 41.8778 20.4194C41.3889 20.4194 40.9653 20.3542 40.6068 20.2239C40.2483 20.0935 39.955 19.898 39.7595 19.6373C39.5313 19.3765 39.3684 19.0506 39.2706 18.627C39.1728 18.2359 39.1077 17.747 39.1077 17.193V11.6528H37.8041C37.7063 11.6528 37.6085 11.5876 37.5434 11.4898C37.4782 11.392 37.4456 11.1965 37.4456 10.9358C37.4456 10.8054 37.4456 10.6751 37.4782 10.6099C37.5108 10.5121 37.5108 10.4469 37.5434 10.3818C37.5759 10.3166 37.6085 10.284 37.6411 10.2514C37.6737 10.2188 37.7389 10.2188 37.8041 10.2188H39.1077V7.97012C39.1077 7.90494 39.1077 7.87235 39.1403 7.83976C39.1728 7.80717 39.2054 7.77458 39.2706 7.74199C39.3358 7.7094 39.4336 7.67681 39.5313 7.67681C39.6291 7.67681 39.7921 7.64423 39.955 7.64423C40.118 7.64423 40.2809 7.64422 40.3787 7.67681C40.4764 7.67681 40.5742 7.7094 40.6394 7.74199C40.7046 7.77458 40.7372 7.80717 40.7697 7.83976C40.8023 7.87235 40.8023 7.93753 40.8023 7.97012V10.2188H43.2466C43.3117 10.2188 43.3443 10.2188 43.4095 10.2514C43.4421 10.284 43.4747 10.3166 43.5073 10.3818C43.5399 10.4469 43.5725 10.5121 43.5725 10.6099C43.5725 10.7077 43.6051 10.8054 43.6051 10.9358C43.6051 11.1965 43.5725 11.3595 43.5073 11.4898C43.4421 11.5876 43.3443 11.6528 43.2466 11.6528H40.8023V16.9323C40.8023 17.5841 40.9001 18.0729 41.0956 18.3988C41.2912 18.7247 41.6497 18.8877 42.1385 18.8877C42.3015 18.8877 42.4318 18.8877 42.5622 18.8551C42.6925 18.8225 42.7903 18.7899 42.8881 18.7573C42.9858 18.7247 43.0836 18.6921 43.1488 18.6596C43.214 18.627 43.2792 18.627 43.3443 18.627C43.3769 18.627 43.4095 18.627 43.4421 18.6596C43.4747 18.6921 43.5073 18.7247 43.5073 18.7573C43.5399 18.8225 43.5399 18.8877 43.5399 18.9529C43.6376 19.018 43.6376 19.1484 43.6376 19.2788Z" fill="white"/>
<path d="M52.8279 19.9631C52.8279 20.0608 52.7953 20.126 52.7301 20.1586C52.665 20.1912 52.5998 20.2238 52.502 20.2564C52.4042 20.289 52.2739 20.289 52.0783 20.289C51.8828 20.289 51.7524 20.289 51.6547 20.2564C51.5569 20.2238 51.4591 20.1912 51.4265 20.1586C51.3614 20.126 51.3614 20.0608 51.3614 19.9631V19.018C50.9377 19.4742 50.4814 19.8001 49.9926 20.0608C49.4712 20.3216 48.9497 20.4193 48.3631 20.4193C47.8743 20.4193 47.418 20.3541 46.9943 20.2238C46.6033 20.0934 46.2448 19.8979 45.9515 19.6698C45.6582 19.409 45.43 19.1157 45.2997 18.7572C45.1367 18.3988 45.0715 18.0077 45.0715 17.5514C45.0715 17.03 45.1693 16.5411 45.3974 16.1501C45.6256 15.759 45.9189 15.4331 46.3426 15.1724C46.7336 14.9117 47.2551 14.7161 47.8417 14.5858C48.4283 14.4554 49.0801 14.3902 49.8297 14.3902H51.1332V13.6407C51.1332 13.2822 51.1007 12.9563 51.0029 12.663C50.9377 12.3697 50.8073 12.1415 50.6444 11.9786C50.4814 11.783 50.2533 11.6527 49.96 11.5549C49.6993 11.4571 49.3408 11.4245 48.9497 11.4245C48.5261 11.4245 48.135 11.4897 47.8091 11.5875C47.4832 11.6853 47.1573 11.8156 46.9292 11.9134C46.6684 12.0438 46.4729 12.1415 46.2774 12.2393C46.1144 12.3371 45.9841 12.4022 45.8863 12.4022C45.8211 12.4022 45.7885 12.4022 45.7233 12.3697C45.6908 12.3371 45.6582 12.3045 45.6256 12.2393C45.593 12.1741 45.5604 12.1089 45.5604 12.0112C45.5604 11.9134 45.5278 11.8156 45.5278 11.7179C45.5278 11.5549 45.5278 11.392 45.5604 11.2942C45.593 11.1964 45.6582 11.0986 45.7233 11.0009C45.8211 10.9031 45.9841 10.8053 46.2122 10.675C46.4403 10.5446 46.701 10.4469 47.0269 10.3491C47.3202 10.2513 47.6461 10.1536 48.0046 10.0884C48.3631 10.0232 48.7216 9.9906 49.0801 9.9906C49.7645 9.9906 50.3511 10.0558 50.8073 10.2187C51.2962 10.3817 51.6547 10.6098 51.9806 10.9031C52.2739 11.1964 52.502 11.5875 52.6324 12.0112C52.7627 12.4674 52.8279 12.9563 52.8279 13.5755V19.9631V19.9631ZM51.1006 15.6286H49.6015C49.1127 15.6286 48.7216 15.6612 48.3631 15.759C48.0046 15.8242 47.7113 15.9545 47.4832 16.1175C47.2551 16.2804 47.0921 16.476 46.9618 16.6715C46.864 16.8996 46.7988 17.1603 46.7988 17.4211C46.7988 17.9099 46.9618 18.301 47.2551 18.5943C47.581 18.8876 48.0046 19.018 48.5587 19.018C49.0149 19.018 49.4386 18.8876 49.8297 18.6595C50.2207 18.4313 50.6444 18.0729 51.0681 17.584V15.6286H51.1006Z" fill="white"/>
<path d="M57.7489 19.9633C57.7489 20.0284 57.7489 20.061 57.7164 20.0936C57.6838 20.1262 57.6512 20.1588 57.586 20.1914C57.5208 20.224 57.423 20.2566 57.3253 20.2566C57.2275 20.2566 57.0646 20.2892 56.9016 20.2892C56.7387 20.2892 56.6083 20.2892 56.4779 20.2566C56.3802 20.2566 56.2824 20.224 56.2172 20.1914C56.152 20.1588 56.1195 20.1262 56.0869 20.0936C56.0543 20.061 56.0543 19.9958 56.0543 19.9633V5.88449C56.0543 5.81931 56.0543 5.78672 56.0869 5.72154C56.1195 5.68895 56.152 5.65636 56.2172 5.62377C56.2824 5.59118 56.3802 5.55859 56.4779 5.55859C56.5757 5.55859 56.7387 5.526 56.9016 5.526C57.0646 5.526 57.2275 5.526 57.3253 5.55859C57.423 5.55859 57.5208 5.59118 57.586 5.62377C57.6512 5.65636 57.6838 5.68895 57.7164 5.72154C57.7489 5.75413 57.7489 5.81931 57.7489 5.88449V19.9633Z" fill="white"/>
<path d="M71.6323 13.2171C71.6323 14.3903 71.4694 15.4332 71.1761 16.3131C70.8828 17.193 70.4265 17.91 69.8399 18.4966C69.2533 19.0832 68.5363 19.5069 67.7216 19.8002C66.8742 20.0935 65.8639 20.2239 64.7233 20.2239H61.8228C61.6599 20.2239 61.4969 20.1587 61.3666 20.0609C61.2362 19.9632 61.1384 19.7676 61.1384 19.4743V7.31835C61.1384 7.05763 61.2036 6.86209 61.3666 6.73174C61.4969 6.63397 61.6599 6.56879 61.8228 6.56879H64.9188C66.0921 6.56879 67.1023 6.73173 67.9171 7.02504C68.7318 7.31835 69.4162 7.77461 69.9703 8.32863C70.5243 8.91525 70.9479 9.59963 71.2087 10.4144C71.502 11.2617 71.6323 12.1742 71.6323 13.2171ZM69.7421 13.2823C69.7421 12.5327 69.6444 11.8483 69.4814 11.2291C69.2859 10.6099 69.0251 10.0559 68.6341 9.56704C68.243 9.11079 67.7541 8.7523 67.1675 8.49158C66.5809 8.23086 65.7988 8.1005 64.8537 8.1005H62.996V18.6922H64.8537C65.7336 18.6922 66.4506 18.5944 67.0698 18.3663C67.6564 18.1381 68.1778 17.8122 68.5689 17.356C68.96 16.8997 69.2533 16.3457 69.4814 15.6613C69.6118 15.0095 69.7421 14.1948 69.7421 13.2823Z" fill="white"/>
<path d="M82.3218 14.8141C82.3218 15.0748 82.2566 15.2703 82.1262 15.4007C81.9959 15.531 81.8329 15.5636 81.67 15.5636H75.4127C75.4127 16.0851 75.4779 16.5739 75.5757 16.9976C75.6734 17.4212 75.869 17.7797 76.0971 18.073C76.3578 18.3664 76.6511 18.5945 77.0748 18.7574C77.4659 18.9204 77.9547 18.9856 78.5088 18.9856C78.965 18.9856 79.3561 18.953 79.7146 18.8878C80.0731 18.8226 80.3664 18.7248 80.6271 18.6271C80.8878 18.5293 81.0833 18.4641 81.2463 18.3663C81.4092 18.3012 81.5396 18.2686 81.6374 18.2686C81.7026 18.2686 81.7351 18.2686 81.7677 18.3012C81.8003 18.3338 81.8329 18.3664 81.8655 18.3989C81.8981 18.4641 81.8981 18.5293 81.8981 18.5945C81.8981 18.6922 81.8981 18.79 81.8981 18.9204C81.8981 19.0181 81.8981 19.0833 81.8981 19.1485C81.8981 19.2137 81.8981 19.2789 81.8655 19.3115C81.8655 19.3766 81.8329 19.4092 81.8003 19.4418C81.7677 19.4744 81.7351 19.5396 81.7026 19.5722C81.67 19.6048 81.5396 19.6699 81.3441 19.7677C81.1485 19.8655 80.9204 19.9307 80.5945 20.0284C80.3012 20.1262 79.9427 20.1914 79.5516 20.2566C79.1606 20.3217 78.7369 20.3543 78.2806 20.3543C77.4985 20.3543 76.8141 20.2566 76.2275 20.0284C75.6409 19.8003 75.152 19.4744 74.7609 19.0507C74.3699 18.6271 74.044 18.073 73.8484 17.4538C73.6529 16.802 73.5551 16.0525 73.5551 15.2051C73.5551 14.3904 73.6529 13.6734 73.881 13.0216C74.0766 12.3698 74.4024 11.8158 74.7935 11.3596C75.1846 10.9033 75.6734 10.5448 76.2275 10.3167C76.7815 10.0886 77.4333 9.95819 78.1177 9.95819C78.8672 9.95819 79.4864 10.0886 80.0079 10.3167C80.5293 10.5448 80.953 10.8707 81.3115 11.2944C81.6374 11.6855 81.8981 12.1743 82.061 12.7283C82.224 13.2823 82.2892 13.869 82.2892 14.4556V14.8141H82.3218ZM80.5619 14.2926C80.5945 13.3801 80.3664 12.6631 79.9427 12.1417C79.519 11.6203 78.8672 11.3596 78.0525 11.3596C77.6288 11.3596 77.2378 11.4247 76.9119 11.5877C76.586 11.7506 76.3252 11.9788 76.0971 12.2395C75.869 12.5002 75.706 12.8261 75.5757 13.1846C75.4453 13.5431 75.3801 13.9016 75.3801 14.2926H80.5619Z" fill="white"/>
<path d="M93.109 19.9631C93.109 20.0282 93.109 20.0608 93.0764 20.0934C93.0438 20.126 93.0113 20.1586 92.9461 20.1912C92.8809 20.2238 92.7831 20.2564 92.6854 20.2564C92.5876 20.2564 92.4246 20.289 92.2617 20.289C92.0987 20.289 91.9358 20.289 91.838 20.2564C91.7403 20.2564 91.6425 20.2238 91.5773 20.1912C91.5121 20.1586 91.4795 20.126 91.447 20.0934C91.4144 20.0608 91.4144 19.9957 91.4144 19.9631V14.4228C91.4144 13.8688 91.3818 13.4451 91.284 13.1192C91.1862 12.7933 91.0885 12.5 90.9255 12.2719C90.7626 12.0438 90.567 11.8482 90.3063 11.7179C90.0456 11.5875 89.7523 11.5223 89.4264 11.5223C89.0027 11.5223 88.5465 11.6853 88.1228 11.9786C87.6991 12.2719 87.2429 12.7281 86.754 13.3473V19.9631C86.754 20.0282 86.754 20.0608 86.7214 20.0934C86.6888 20.126 86.6563 20.1586 86.5911 20.1912C86.5259 20.2238 86.4281 20.2564 86.3304 20.2564C86.2326 20.2564 86.0696 20.289 85.9067 20.289C85.7437 20.289 85.6134 20.289 85.483 20.2564C85.3853 20.2564 85.2875 20.2238 85.2223 20.1912C85.1571 20.1586 85.1245 20.126 85.0919 20.0934C85.0594 20.0608 85.0594 19.9957 85.0594 19.9631V10.4794C85.0594 10.4143 85.0594 10.3817 85.0919 10.3491C85.1245 10.3165 85.1571 10.2839 85.2223 10.2513C85.2875 10.2187 85.3527 10.1861 85.4504 10.1861C85.5482 10.1861 85.6786 10.1861 85.8415 10.1861C86.0045 10.1861 86.1348 10.1861 86.2326 10.1861C86.3304 10.1861 86.4281 10.2187 86.4607 10.2513C86.5259 10.2839 86.5585 10.3165 86.5911 10.3491C86.6237 10.3817 86.6237 10.4469 86.6237 10.4794V11.7179C87.1451 11.1312 87.6991 10.675 88.2206 10.4143C88.742 10.121 89.296 9.9906 89.8175 9.9906C90.4367 9.9906 90.9907 10.0884 91.4144 10.3165C91.838 10.5446 92.1965 10.8053 92.4572 11.1638C92.718 11.5223 92.9135 11.946 93.0438 12.4348C93.1742 12.9237 93.2068 13.4777 93.2068 14.1621V19.9631H93.109Z" fill="white"/>
<path d="M101.028 19.2788C101.028 19.4743 101.028 19.6373 100.996 19.7676C100.963 19.898 100.931 19.9632 100.865 20.0283C100.8 20.0935 100.735 20.1261 100.605 20.1913C100.507 20.2565 100.376 20.289 100.214 20.3216C100.083 20.3542 99.9202 20.3868 99.7573 20.3868C99.5943 20.4194 99.4314 20.4194 99.2685 20.4194C98.7796 20.4194 98.3559 20.3542 97.9975 20.2239C97.639 20.0935 97.3457 19.898 97.1501 19.6373C96.922 19.3765 96.759 19.0506 96.6613 18.627C96.5635 18.2359 96.4983 17.747 96.4983 17.193V11.6528H95.1621C95.0644 11.6528 94.9666 11.5876 94.9014 11.4898C94.8362 11.392 94.8036 11.1965 94.8036 10.9358C94.8036 10.8054 94.8037 10.6751 94.8362 10.6099C94.8688 10.5121 94.8688 10.4469 94.9014 10.3818C94.934 10.3166 94.9666 10.284 94.9992 10.2514C95.0318 10.2188 95.097 10.2188 95.1621 10.2188H96.4657V7.97012C96.4657 7.90494 96.4657 7.87235 96.4983 7.83976C96.5309 7.80717 96.5635 7.77458 96.6287 7.74199C96.6939 7.7094 96.7916 7.67681 96.8894 7.67681C96.9872 7.67681 97.1501 7.64423 97.3131 7.64423C97.476 7.64423 97.639 7.64422 97.7367 7.67681C97.8345 7.67681 97.9323 7.7094 97.9975 7.74199C98.0626 7.77458 98.0952 7.80717 98.1278 7.83976C98.1604 7.87235 98.1604 7.93753 98.1604 7.97012V10.2188H100.605C100.67 10.2188 100.702 10.2188 100.768 10.2514C100.8 10.284 100.833 10.3166 100.865 10.3818C100.898 10.4469 100.931 10.5121 100.931 10.6099C100.931 10.7077 100.963 10.8054 100.963 10.9358C100.963 11.1965 100.931 11.3595 100.865 11.4898C100.8 11.5876 100.702 11.6528 100.605 11.6528H98.1604V16.9323C98.1604 17.5841 98.2582 18.0729 98.4537 18.3988C98.6492 18.7247 99.0077 18.8877 99.4966 18.8877C99.6595 18.8877 99.7899 18.8877 99.9202 18.8551C100.051 18.8225 100.148 18.7899 100.246 18.7573C100.344 18.7247 100.442 18.6921 100.507 18.6596C100.572 18.627 100.637 18.627 100.702 18.627C100.735 18.627 100.768 18.627 100.8 18.6596C100.833 18.6921 100.865 18.7247 100.865 18.7573C100.898 18.8225 100.898 18.8877 100.898 18.9529C100.996 19.018 101.028 19.1484 101.028 19.2788Z" fill="white"/>
<path d="M110.186 19.9631C110.186 20.0608 110.153 20.126 110.088 20.1586C110.023 20.1912 109.958 20.2238 109.86 20.2564C109.762 20.289 109.632 20.289 109.436 20.289C109.241 20.289 109.111 20.289 109.013 20.2564C108.915 20.2238 108.817 20.1912 108.785 20.1586C108.719 20.126 108.719 20.0608 108.719 19.9631V19.018C108.296 19.4742 107.84 19.8001 107.351 20.0608C106.829 20.3216 106.308 20.4193 105.721 20.4193C105.232 20.4193 104.776 20.3541 104.352 20.2238C103.961 20.0934 103.603 19.8979 103.31 19.6698C103.016 19.409 102.788 19.1157 102.658 18.7572C102.527 18.3988 102.43 18.0077 102.43 17.5514C102.43 17.03 102.527 16.5411 102.756 16.1501C102.984 15.759 103.277 15.4331 103.701 15.1724C104.092 14.9117 104.613 14.7161 105.2 14.5858C105.786 14.4554 106.438 14.3902 107.188 14.3902H108.491V13.6407C108.491 13.2822 108.459 12.9563 108.361 12.663C108.296 12.3697 108.165 12.1415 108.002 11.9786C107.84 11.783 107.611 11.6527 107.318 11.5549C107.057 11.4571 106.699 11.4245 106.308 11.4245C105.884 11.4245 105.493 11.4897 105.167 11.5875C104.841 11.6853 104.515 11.8156 104.287 11.9134C104.027 12.0438 103.831 12.1415 103.635 12.2393C103.472 12.3371 103.342 12.4022 103.244 12.4022C103.179 12.4022 103.147 12.4022 103.081 12.3697C103.049 12.3371 103.016 12.3045 102.984 12.2393C102.951 12.1741 102.918 12.1089 102.918 12.0112C102.918 11.9134 102.886 11.8156 102.886 11.7179C102.886 11.5549 102.886 11.392 102.918 11.2942C102.951 11.1964 103.016 11.0986 103.081 11.0009C103.179 10.9031 103.342 10.8053 103.57 10.675C103.798 10.5446 104.059 10.4469 104.385 10.3491C104.678 10.2513 105.004 10.1536 105.363 10.0884C105.721 10.0232 106.08 9.9906 106.438 9.9906C107.123 9.9906 107.709 10.0558 108.165 10.2187C108.654 10.3817 109.013 10.6098 109.339 10.9031C109.632 11.1964 109.86 11.5875 109.99 12.0112C110.121 12.4674 110.186 12.9563 110.186 13.5755V19.9631V19.9631ZM108.459 15.6286H106.96C106.471 15.6286 106.08 15.6612 105.721 15.759C105.363 15.8242 105.069 15.9545 104.841 16.1175C104.613 16.2804 104.45 16.476 104.32 16.6715C104.222 16.8996 104.157 17.1603 104.157 17.4211C104.157 17.9099 104.32 18.301 104.613 18.5943C104.939 18.8876 105.363 19.018 105.917 19.018C106.373 19.018 106.797 18.8876 107.188 18.6595C107.579 18.4313 108.002 18.0729 108.426 17.584V15.6286H108.459Z" fill="white"/>
<path d="M115.107 19.9633C115.107 20.0284 115.107 20.061 115.075 20.0936C115.042 20.1262 115.009 20.1588 114.944 20.1914C114.879 20.224 114.781 20.2566 114.683 20.2566C114.586 20.2566 114.423 20.2892 114.26 20.2892C114.097 20.2892 113.966 20.2892 113.836 20.2566C113.738 20.2566 113.641 20.224 113.575 20.1914C113.51 20.1588 113.478 20.1262 113.445 20.0936C113.412 20.061 113.412 19.9958 113.412 19.9633V5.88449C113.412 5.81931 113.412 5.78672 113.445 5.72154C113.478 5.68895 113.51 5.65636 113.575 5.62377C113.641 5.59118 113.738 5.55859 113.836 5.55859C113.934 5.55859 114.097 5.526 114.26 5.526C114.423 5.526 114.586 5.526 114.683 5.55859C114.781 5.55859 114.879 5.59118 114.944 5.62377C115.009 5.65636 115.042 5.68895 115.075 5.72154C115.107 5.75413 115.107 5.81931 115.107 5.88449V19.9633Z" fill="white"/>
<path d="M63.4522 31.174C63.4522 31.2392 63.4522 31.3043 63.4522 31.3369C63.4522 31.3695 63.4196 31.4347 63.4196 31.4673C63.387 31.4999 63.387 31.5325 63.3544 31.5325C63.3218 31.5325 63.3218 31.5651 63.2893 31.5651H60.0629C59.9977 31.5651 59.8999 31.5325 59.8347 31.4999C59.7696 31.4347 59.737 31.3369 59.737 31.2066V25.2101C59.737 25.0797 59.7696 24.9819 59.8347 24.9167C59.8999 24.8516 59.9651 24.8516 60.0629 24.8516H63.2567C63.2893 24.8516 63.3218 24.8516 63.3218 24.8842C63.3544 24.8842 63.3544 24.9167 63.387 24.9493C63.387 24.9819 63.4196 25.0145 63.4196 25.0797C63.4196 25.1123 63.4196 25.1775 63.4196 25.2426C63.4196 25.3078 63.4196 25.373 63.4196 25.4056C63.4196 25.4382 63.387 25.5034 63.387 25.5359C63.387 25.5685 63.3544 25.6011 63.3218 25.6011C63.2893 25.6011 63.2893 25.6337 63.2567 25.6337H60.6169V27.752H62.8656C62.8982 27.752 62.9308 27.7521 62.9308 27.7846C62.9634 27.7846 62.9634 27.8172 62.9959 27.8498C62.9959 27.8824 63.0285 27.915 63.0285 27.9802C63.0285 28.0128 63.0285 28.078 63.0285 28.1431C63.0285 28.2083 63.0285 28.2735 63.0285 28.3061C63.0285 28.3387 62.9959 28.3713 62.9959 28.4038C62.9959 28.4364 62.9634 28.4364 62.9308 28.469C62.8982 28.469 62.8982 28.5016 62.8656 28.5016H60.6169V30.9133H63.2893C63.3218 30.9133 63.3544 30.9133 63.3544 30.9459C63.387 30.9459 63.387 30.9784 63.4196 31.011C63.4522 31.0436 63.4522 31.0762 63.4522 31.1414C63.4522 31.0436 63.4522 31.1088 63.4522 31.174Z" fill="white"/>
<path d="M69.8072 33.2596C69.8072 33.2922 69.8072 33.3248 69.7746 33.3248C69.7746 33.3574 69.742 33.3574 69.7094 33.39C69.6768 33.39 69.6443 33.4226 69.5791 33.4226C69.5139 33.4226 69.4487 33.4226 69.3835 33.4226C69.2858 33.4226 69.2206 33.4226 69.188 33.4226C69.1228 33.4226 69.0902 33.39 69.0576 33.39C69.025 33.39 68.9925 33.3574 68.9925 33.3248C68.9925 33.2922 68.9599 33.2922 68.9599 33.2596V30.8806C68.8295 31.0109 68.6991 31.1413 68.5688 31.2391C68.4384 31.3368 68.3081 31.402 68.1777 31.4672C68.0474 31.5324 67.917 31.565 67.7866 31.5976C67.6563 31.6301 67.5259 31.6301 67.3956 31.6301C67.0697 31.6301 66.7764 31.565 66.5156 31.4346C66.2875 31.3042 66.092 31.1087 65.929 30.8806C65.7661 30.6524 65.6683 30.3917 65.6031 30.0658C65.5379 29.7725 65.5054 29.4466 65.5054 29.0881C65.5054 28.6971 65.5379 28.3386 65.6357 28.0127C65.7335 27.6868 65.8638 27.4261 66.0268 27.1979C66.1897 26.9698 66.4179 26.8069 66.646 26.6765C66.9067 26.5461 67.2 26.481 67.5259 26.481C67.6563 26.481 67.7866 26.481 67.917 26.5135C68.0474 26.5461 68.1451 26.5787 68.2755 26.6439C68.4058 26.7091 68.5036 26.8069 68.634 26.9046C68.7643 27.0024 68.8947 27.1328 69.025 27.2631V26.7091C69.025 26.6765 69.025 26.6439 69.0576 26.6439C69.0576 26.6113 69.0902 26.6113 69.1228 26.5787C69.1554 26.5787 69.188 26.5461 69.2532 26.5461C69.2858 26.5461 69.3509 26.5461 69.4487 26.5461C69.5139 26.5461 69.5791 26.5461 69.6117 26.5461C69.6443 26.5461 69.7094 26.5461 69.742 26.5787C69.7746 26.5787 69.8072 26.6113 69.8072 26.6439C69.8072 26.6765 69.8398 26.6765 69.8398 26.7091V33.2596H69.8072ZM68.9599 28.1104C68.7317 27.8171 68.5036 27.589 68.2755 27.4586C68.0474 27.2957 67.8192 27.2305 67.5911 27.2305C67.363 27.2305 67.2 27.2957 67.0371 27.3935C66.8741 27.4912 66.7764 27.6216 66.6786 27.8171C66.5808 27.9801 66.5156 28.1756 66.483 28.4038C66.4505 28.6319 66.4179 28.8274 66.4179 29.0555C66.4179 29.2837 66.4505 29.5118 66.483 29.7399C66.5156 29.9681 66.5808 30.1636 66.6786 30.3266C66.7764 30.4895 66.8741 30.6524 67.0371 30.7502C67.2 30.848 67.363 30.9132 67.5911 30.9132C67.7215 30.9132 67.8192 30.9132 67.917 30.8806C68.0148 30.848 68.1451 30.7828 68.2429 30.7176C68.3407 30.6524 68.471 30.5547 68.6014 30.4243C68.7317 30.294 68.8621 30.1636 68.9925 30.0007V28.1104H68.9599Z" fill="white"/>
<path d="M76.5858 31.4021C76.5858 31.4347 76.5858 31.4673 76.5532 31.4673C76.5532 31.4998 76.5206 31.4998 76.488 31.5324C76.4554 31.565 76.4228 31.565 76.3576 31.565C76.2924 31.565 76.2599 31.565 76.1621 31.565C76.0969 31.565 76.0317 31.565 75.9666 31.565C75.9014 31.565 75.8688 31.5324 75.8362 31.5324C75.8036 31.5324 75.771 31.4998 75.771 31.4673C75.771 31.4347 75.771 31.4347 75.771 31.4021V30.7829C75.5103 31.0762 75.2496 31.3043 74.9889 31.4347C74.7281 31.565 74.4674 31.6302 74.2067 31.6302C73.8808 31.6302 73.6201 31.565 73.4245 31.4673C73.1964 31.3695 73.0335 31.2065 72.9031 31.0436C72.7728 30.8806 72.675 30.6525 72.6098 30.4244C72.5446 30.1963 72.512 29.9029 72.512 29.5445V26.7092C72.512 26.6766 72.512 26.644 72.5446 26.644C72.5446 26.6114 72.5772 26.6114 72.6098 26.5788C72.6424 26.5788 72.675 26.5462 72.7402 26.5462C72.8054 26.5462 72.8705 26.5462 72.9357 26.5462C73.0335 26.5462 73.0987 26.5462 73.1312 26.5462C73.1964 26.5462 73.229 26.5462 73.2616 26.5788C73.2942 26.5788 73.3268 26.6114 73.3268 26.644C73.3268 26.6766 73.3594 26.6766 73.3594 26.7092V29.4141C73.3594 29.6748 73.392 29.9029 73.4245 30.0659C73.4571 30.2288 73.5223 30.3592 73.6201 30.4896C73.6853 30.6199 73.8156 30.6851 73.9134 30.7503C74.0438 30.8155 74.1741 30.848 74.3371 30.848C74.5652 30.848 74.7607 30.7829 74.9889 30.6199C75.217 30.457 75.4125 30.2288 75.6732 29.9355V26.6766C75.6732 26.644 75.6732 26.6114 75.7058 26.6114C75.7058 26.5788 75.7384 26.5788 75.771 26.5462C75.8036 26.5462 75.8362 26.5136 75.9014 26.5136C75.9666 26.5136 76.0317 26.5136 76.0969 26.5136C76.1947 26.5136 76.2599 26.5136 76.2925 26.5136C76.3576 26.5136 76.3902 26.5136 76.4228 26.5462C76.4554 26.5462 76.488 26.5788 76.488 26.6114C76.488 26.644 76.5206 26.644 76.5206 26.6766V31.4021H76.5858Z" fill="white"/>
<path d="M80.2685 25.1448C80.2685 25.3404 80.2359 25.4708 80.1381 25.5685C80.0729 25.6337 79.91 25.6663 79.7144 25.6663C79.5189 25.6663 79.3885 25.6337 79.2908 25.5685C79.2256 25.5033 79.193 25.373 79.193 25.1774C79.193 24.9819 79.2256 24.8515 79.3234 24.7538C79.3885 24.6886 79.5515 24.656 79.747 24.656C79.9426 24.656 80.0729 24.6886 80.1707 24.7538C80.2359 24.819 80.2685 24.9493 80.2685 25.1448ZM80.1707 31.4021C80.1707 31.4347 80.1707 31.4673 80.1381 31.4673C80.1381 31.4999 80.1055 31.4999 80.0729 31.5324C80.0403 31.5324 80.0077 31.565 79.9426 31.565C79.8774 31.565 79.8122 31.565 79.7144 31.565C79.6167 31.565 79.5515 31.565 79.5189 31.565C79.4537 31.565 79.4211 31.5324 79.3885 31.5324C79.356 31.5324 79.3234 31.4999 79.3234 31.4673C79.3234 31.4347 79.2908 31.4347 79.2908 31.4021V26.7418C79.2908 26.7092 79.2908 26.7092 79.3234 26.6766C79.3234 26.644 79.356 26.644 79.3885 26.6114C79.4211 26.6114 79.4537 26.5788 79.5189 26.5788C79.5841 26.5788 79.6493 26.5788 79.7144 26.5788C79.8122 26.5788 79.8774 26.5788 79.9426 26.5788C80.0077 26.5788 80.0403 26.6114 80.0729 26.6114C80.1055 26.6114 80.1381 26.644 80.1381 26.6766C80.1381 26.7092 80.1707 26.7092 80.1707 26.7418V31.4021Z" fill="white"/>
<path d="M87.2426 28.9904C87.2426 29.414 87.21 29.7725 87.1123 30.0984C87.0145 30.4243 86.8842 30.685 86.7212 30.9132C86.5583 31.1413 86.3301 31.3042 86.0694 31.4346C85.8087 31.565 85.5154 31.6301 85.1895 31.6301C85.0591 31.6301 84.9288 31.6301 84.7984 31.5976C84.6681 31.565 84.5703 31.5324 84.4399 31.4672C84.3422 31.402 84.2118 31.3368 84.114 31.2391C84.0163 31.1413 83.8859 31.0435 83.7555 30.9132V33.2596C83.7555 33.2922 83.7555 33.3248 83.7229 33.3248C83.7229 33.3574 83.6904 33.3574 83.6578 33.39C83.6252 33.39 83.5926 33.4226 83.5274 33.4226C83.4622 33.4226 83.3971 33.4226 83.2993 33.4226C83.2015 33.4226 83.1363 33.4226 83.1037 33.4226C83.0386 33.4226 83.006 33.39 82.9734 33.39C82.9408 33.39 82.9082 33.3574 82.9082 33.3248C82.9082 33.2922 82.8756 33.2922 82.8756 33.2596V26.7417C82.8756 26.7091 82.8756 26.6765 82.8756 26.6765C82.8756 26.6439 82.9082 26.6439 82.9408 26.6113C82.9734 26.6113 83.006 26.5787 83.0712 26.5787C83.1037 26.5787 83.1689 26.5787 83.2341 26.5787C83.2993 26.5787 83.3645 26.5787 83.397 26.5787C83.4296 26.5787 83.4948 26.5787 83.5274 26.6113C83.56 26.6113 83.5926 26.6439 83.5926 26.6765C83.5926 26.7091 83.6252 26.7091 83.6252 26.7417V27.3609C83.7555 27.2305 83.9185 27.1002 84.0488 26.9698C84.1792 26.872 84.3096 26.7743 84.4399 26.7091C84.5703 26.6439 84.7006 26.5787 84.8636 26.5461C84.9939 26.5136 85.1569 26.481 85.3198 26.481C85.6457 26.481 85.9391 26.5461 86.1998 26.6765C86.4279 26.8069 86.6234 27.0024 86.7864 27.2305C86.9493 27.4587 87.0471 27.7194 87.1123 28.0127C87.21 28.3386 87.2426 28.6645 87.2426 28.9904ZM86.3627 29.0881C86.3627 28.86 86.3301 28.6319 86.2975 28.4038C86.2649 28.1756 86.1998 27.9801 86.102 27.8171C86.0042 27.6542 85.9065 27.4912 85.7435 27.3935C85.5806 27.2957 85.4176 27.2305 85.1895 27.2305C85.0917 27.2305 84.9614 27.2631 84.8636 27.2957C84.7658 27.3283 84.6355 27.3935 84.5377 27.4586C84.4399 27.5238 84.3096 27.6216 84.1792 27.752C84.0488 27.8823 83.9185 28.0127 83.7881 28.1756V30.0332C84.0163 30.3265 84.2444 30.5547 84.4725 30.685C84.7006 30.848 84.8962 30.9132 85.1569 30.9132C85.385 30.9132 85.548 30.848 85.7109 30.7502C85.8739 30.6524 86.0042 30.5221 86.102 30.3266C86.1998 30.1636 86.2649 29.9681 86.2975 29.7399C86.3301 29.5444 86.3627 29.3163 86.3627 29.0881Z" fill="white"/>
<path d="M96.6286 31.4021C96.6286 31.4347 96.6286 31.4673 96.596 31.4673C96.596 31.4998 96.5634 31.4998 96.5308 31.5324C96.4982 31.5324 96.4656 31.565 96.4004 31.565C96.3353 31.565 96.2701 31.565 96.2049 31.565C96.1071 31.565 96.0419 31.565 95.9768 31.565C95.9116 31.565 95.879 31.5324 95.8464 31.5324C95.8138 31.5324 95.7812 31.4998 95.7812 31.4673C95.7812 31.4347 95.7486 31.4347 95.7486 31.4021V28.5668C95.7486 28.3712 95.7161 28.1757 95.6835 28.0127C95.6509 27.8498 95.5857 27.7194 95.5205 27.5891C95.4553 27.4587 95.3576 27.3935 95.2272 27.3284C95.0968 27.2632 94.9665 27.2306 94.8035 27.2306C94.608 27.2306 94.4125 27.2958 94.2169 27.4587C94.0214 27.6217 93.7933 27.8498 93.5651 28.1431V31.4021C93.5651 31.4347 93.5651 31.4673 93.5325 31.4673C93.5325 31.4998 93.4999 31.4998 93.4674 31.5324C93.4348 31.5324 93.4022 31.565 93.337 31.565C93.2718 31.565 93.2066 31.565 93.1415 31.565C93.0763 31.565 92.9785 31.565 92.9459 31.565C92.8807 31.565 92.8481 31.5324 92.8156 31.5324C92.783 31.5324 92.7504 31.4998 92.7504 31.4673C92.7504 31.4347 92.7178 31.4347 92.7178 31.4021V28.5668C92.7178 28.3712 92.6852 28.1757 92.6526 28.0127C92.62 27.8498 92.5548 27.7194 92.4897 27.5891C92.4245 27.4587 92.3267 27.3935 92.1964 27.3284C92.066 27.2632 91.9356 27.2306 91.7727 27.2306C91.5772 27.2306 91.3816 27.2958 91.1861 27.4587C90.9905 27.6217 90.7624 27.8498 90.5343 28.1431V31.4021C90.5343 31.4347 90.5343 31.4673 90.5017 31.4673C90.5017 31.4998 90.4691 31.4998 90.4365 31.5324C90.4039 31.5324 90.3713 31.565 90.3062 31.565C90.241 31.565 90.1758 31.565 90.078 31.565C89.9803 31.565 89.9151 31.565 89.8825 31.565C89.8173 31.565 89.7847 31.5324 89.7521 31.5324C89.7195 31.5324 89.6869 31.4998 89.6869 31.4673C89.6869 31.4347 89.6544 31.4347 89.6544 31.4021V26.7417C89.6544 26.7092 89.6544 26.6766 89.6544 26.6766C89.6544 26.644 89.6869 26.644 89.7195 26.6114C89.7521 26.6114 89.7847 26.5788 89.8499 26.5788C89.8825 26.5788 89.9477 26.5788 90.0454 26.5788C90.1106 26.5788 90.1758 26.5788 90.241 26.5788C90.3061 26.5788 90.3387 26.5788 90.3713 26.6114C90.4039 26.6114 90.4039 26.644 90.4365 26.6766C90.4365 26.7091 90.4691 26.7092 90.4691 26.7417V27.3609C90.7298 27.0676 90.9905 26.8395 91.2513 26.7092C91.512 26.5788 91.7401 26.5136 92.0008 26.5136C92.1964 26.5136 92.3593 26.5462 92.5223 26.5788C92.6852 26.6114 92.8156 26.6766 92.9459 26.7743C93.0763 26.8395 93.1741 26.9373 93.2392 27.0676C93.337 27.1654 93.4022 27.2958 93.4348 27.4587C93.5977 27.2958 93.7281 27.1328 93.891 27.035C94.0214 26.9047 94.1517 26.8069 94.2821 26.7417C94.4125 26.6766 94.5428 26.6114 94.6732 26.5788C94.8035 26.5462 94.9339 26.5136 95.0317 26.5136C95.325 26.5136 95.5857 26.5788 95.7812 26.6766C95.9768 26.7743 96.1397 26.9373 96.2701 27.1002C96.4004 27.2632 96.4982 27.4913 96.5308 27.7194C96.596 27.9476 96.596 28.2083 96.596 28.469V31.4021H96.6286Z" fill="white"/>
<path d="M103.342 28.86C103.342 28.9903 103.309 29.0881 103.244 29.1533C103.179 29.2184 103.114 29.251 103.016 29.251H99.9527C99.9527 29.5117 99.9853 29.7399 100.018 29.968C100.083 30.1635 100.148 30.3591 100.279 30.4894C100.409 30.6524 100.572 30.7502 100.767 30.8479C100.963 30.9131 101.191 30.9783 101.484 30.9783C101.713 30.9783 101.908 30.9457 102.071 30.9131C102.234 30.8805 102.397 30.8479 102.527 30.7828C102.658 30.7502 102.755 30.685 102.853 30.6524C102.951 30.6198 102.984 30.5872 103.049 30.5872C103.081 30.5872 103.081 30.5872 103.114 30.6198C103.146 30.6198 103.146 30.6524 103.146 30.685C103.146 30.7176 103.179 30.7502 103.179 30.7828C103.179 30.8153 103.179 30.8805 103.179 30.9457C103.179 30.9783 103.179 31.0435 103.179 31.0761C103.179 31.1086 103.179 31.1412 103.179 31.1738C103.179 31.2064 103.179 31.239 103.146 31.239C103.146 31.2716 103.114 31.2716 103.114 31.3042C103.081 31.3368 103.049 31.3694 102.951 31.402C102.853 31.4345 102.723 31.4997 102.592 31.5323C102.429 31.5649 102.267 31.5975 102.071 31.6301C101.875 31.6627 101.68 31.6953 101.452 31.6953C101.061 31.6953 100.735 31.6301 100.442 31.5323C100.148 31.4345 99.9201 31.2716 99.7246 31.0435C99.529 30.8479 99.3661 30.5546 99.2683 30.2613C99.1705 29.9354 99.1053 29.5769 99.1053 29.1533C99.1053 28.7622 99.1705 28.4037 99.2683 28.0778C99.3661 27.7519 99.529 27.4912 99.7246 27.2631C99.9201 27.0349 100.148 26.872 100.442 26.7416C100.735 26.6113 101.028 26.5787 101.387 26.5787C101.745 26.5787 102.071 26.6439 102.332 26.7416C102.592 26.872 102.788 27.0023 102.984 27.2305C103.146 27.426 103.277 27.6541 103.342 27.9474C103.407 28.2082 103.472 28.5015 103.472 28.7948V28.86H103.342ZM102.495 28.6318C102.495 28.1756 102.397 27.8171 102.201 27.5564C102.006 27.2956 101.68 27.1653 101.256 27.1653C101.028 27.1653 100.865 27.1979 100.702 27.2956C100.539 27.3608 100.409 27.4912 100.311 27.6215C100.213 27.7519 100.116 27.9148 100.05 28.0778C99.9853 28.2407 99.9527 28.4363 99.9527 28.6318H102.495V28.6318Z" fill="white"/>
<path d="M109.86 31.4021C109.86 31.4347 109.86 31.4673 109.827 31.4673C109.827 31.4998 109.795 31.4998 109.762 31.5324C109.73 31.5324 109.697 31.565 109.632 31.565C109.567 31.565 109.502 31.565 109.436 31.565C109.339 31.565 109.273 31.565 109.208 31.565C109.143 31.565 109.11 31.5324 109.078 31.5324C109.045 31.5324 109.013 31.4998 109.013 31.4673C109.013 31.4347 108.98 31.4347 108.98 31.4021V28.6645C108.98 28.4038 108.948 28.1757 108.915 28.0127C108.882 27.8498 108.817 27.7194 108.719 27.5891C108.654 27.4587 108.524 27.3935 108.426 27.3284C108.296 27.2632 108.165 27.2306 108.002 27.2306C107.774 27.2306 107.579 27.2958 107.351 27.4587C107.122 27.6217 106.927 27.8498 106.666 28.1431V31.4021C106.666 31.4347 106.666 31.4673 106.634 31.4673C106.634 31.4998 106.601 31.4998 106.568 31.5324C106.536 31.5324 106.503 31.565 106.438 31.565C106.373 31.565 106.308 31.565 106.21 31.565C106.112 31.565 106.047 31.565 106.014 31.565C105.949 31.565 105.917 31.5324 105.884 31.5324C105.851 31.5324 105.819 31.4998 105.819 31.4673C105.819 31.4347 105.786 31.4347 105.786 31.4021V26.7417C105.786 26.7092 105.786 26.6766 105.786 26.6766C105.786 26.644 105.819 26.644 105.851 26.6114C105.884 26.6114 105.917 26.5788 105.982 26.5788C106.014 26.5788 106.08 26.5788 106.177 26.5788C106.243 26.5788 106.308 26.5788 106.373 26.5788C106.438 26.5788 106.471 26.5788 106.503 26.6114C106.536 26.6114 106.536 26.644 106.568 26.6766C106.568 26.7091 106.601 26.7092 106.601 26.7417V27.3609C106.862 27.0676 107.123 26.8395 107.383 26.7092C107.644 26.5788 107.905 26.5136 108.165 26.5136C108.491 26.5136 108.752 26.5788 108.948 26.6766C109.176 26.7743 109.339 26.9373 109.469 27.1002C109.599 27.2632 109.697 27.4913 109.762 27.7194C109.827 27.9476 109.86 28.2409 109.86 28.5668V31.4021V31.4021Z" fill="white"/>
<path d="M114.911 31.0762C114.911 31.174 114.911 31.2717 114.879 31.3043C114.879 31.3695 114.846 31.4021 114.814 31.4347C114.781 31.4673 114.748 31.4999 114.683 31.4999C114.618 31.5324 114.553 31.5324 114.488 31.565C114.423 31.565 114.357 31.5976 114.26 31.5976C114.194 31.5976 114.097 31.5976 114.031 31.5976C113.803 31.5976 113.575 31.565 113.412 31.4999C113.249 31.4347 113.086 31.3369 112.989 31.2065C112.891 31.0762 112.793 30.9132 112.76 30.7177C112.695 30.5222 112.695 30.294 112.695 30.0007V27.3284H112.044C111.978 27.3284 111.946 27.2958 111.913 27.2306C111.881 27.1654 111.881 27.1002 111.881 26.9699C111.881 26.9047 111.881 26.8395 111.881 26.8069C111.881 26.7743 111.913 26.7092 111.913 26.7092C111.913 26.6766 111.946 26.644 111.978 26.644C112.011 26.644 112.011 26.6114 112.044 26.6114H112.695V25.5033C112.695 25.4708 112.695 25.4708 112.728 25.4382C112.728 25.4056 112.76 25.4056 112.793 25.373C112.826 25.373 112.858 25.3404 112.923 25.3404C112.989 25.3404 113.054 25.3404 113.119 25.3404C113.217 25.3404 113.282 25.3404 113.347 25.3404C113.412 25.3404 113.445 25.373 113.477 25.373C113.51 25.373 113.543 25.4056 113.543 25.4382C113.543 25.4708 113.575 25.4708 113.575 25.5033V26.6114H114.781C114.814 26.6114 114.846 26.6114 114.846 26.644C114.879 26.644 114.879 26.6766 114.911 26.7092C114.911 26.7418 114.944 26.7743 114.944 26.8069C114.944 26.8395 114.944 26.9047 114.944 26.9699C114.944 27.1002 114.944 27.198 114.911 27.2306C114.879 27.2958 114.846 27.3284 114.781 27.3284H113.575V29.9356C113.575 30.2614 113.608 30.4896 113.706 30.6525C113.803 30.8155 113.966 30.9132 114.227 30.9132C114.292 30.9132 114.39 30.9132 114.455 30.8807C114.52 30.8807 114.586 30.8481 114.618 30.8155C114.651 30.7829 114.716 30.7829 114.748 30.7503C114.781 30.7503 114.814 30.7177 114.846 30.7177C114.879 30.7177 114.879 30.7177 114.911 30.7177C114.911 30.7177 114.944 30.7503 114.944 30.7829C114.944 30.8155 114.977 30.8481 114.977 30.8807C114.911 30.9458 114.911 31.011 114.911 31.0762Z" fill="white"/>
</svg>
