<svg width="234" height="53" viewBox="0 0 234 53" fill="none" xmlns="http://www.w3.org/2000/svg">
<path d="M234 13.8406C234 14.9519 234 16.0127 234 17.124C233.255 22.1753 230.87 26.469 227.838 30.4595C223.515 36.117 218.248 40.6127 212.136 44.0981C211.39 44.5528 210.595 44.9569 209.75 45.2599C209.303 45.4115 208.707 45.4115 208.21 45.3105C207.713 45.2094 207.564 44.7043 207.912 44.3002C208.16 43.9971 208.508 43.694 208.856 43.492C215.068 39.8045 220.037 34.8037 224.062 28.7421C225.801 26.0649 227.043 23.1351 227.59 19.9528C227.888 18.3363 227.987 16.6694 227.59 15.053C226.844 11.7696 224.708 10.0016 221.577 9.29445C219.689 8.83983 217.751 9.04189 215.863 9.34497C211.738 10.0016 207.763 9.64805 203.937 7.72854C202.595 7.07187 201.204 6.41519 199.762 6.01108C196.483 5.05133 193.303 5.40493 190.569 7.72854C188.482 9.49651 187.24 11.8201 186.793 14.5478C185.898 19.9528 186.992 24.9536 190.371 29.3482C190.917 30.1059 191.663 30.7121 192.408 31.3183C193.004 31.8234 193.054 31.8234 193.452 31.0657C195.489 27.5803 198.023 24.6 201.303 22.3269C203.638 20.7105 206.173 19.5487 209.005 19.2456C210.049 19.1445 211.092 19.094 212.086 19.4981C213.626 20.1043 214.372 21.3166 214.173 22.9836C213.974 24.9031 212.98 26.4185 211.738 27.8328C209.949 29.9039 207.614 31.2677 205.229 32.4296C202.595 33.6924 199.862 34.5511 197.029 35.0057C196.731 35.0563 196.383 35.2583 196.185 35.4604C194.595 37.0768 193.65 39.1478 192.905 41.2694C192.16 43.593 191.762 45.9671 191.712 48.3918C191.663 49.3515 191.712 50.3618 191.663 51.3721C191.663 51.6246 191.613 51.9277 191.464 52.1803C191.265 52.6349 190.569 52.6349 190.42 52.1803C190.122 51.2205 189.824 50.2103 189.725 49.2C189.128 44.0476 189.973 39.0973 192.011 34.3491C192.11 34.0965 192.309 33.8439 191.911 33.5914C187.836 31.4193 185.153 28.0349 183.563 23.6907C181.824 18.9425 181.476 14.0427 183.066 9.14291C184.11 6.01108 185.849 3.38439 188.781 1.66694C190.371 0.707188 192.11 0.252567 193.899 0C195.091 0 196.234 0 197.427 0C200.359 0.505133 203.092 1.56591 205.725 2.87926C209.552 4.79876 213.577 5.20287 217.801 4.69774C219.987 4.44517 222.223 4.1926 224.41 4.24312C228.981 4.34414 232.957 7.88008 233.851 12.4768C233.851 12.8809 233.901 13.386 234 13.8406ZM196.98 32.8337C197.079 32.8842 197.129 32.8842 197.129 32.8842C201.452 32.1265 205.129 30.2575 208.111 26.9236C208.856 26.0649 209.353 25.1051 209.403 23.9433C209.403 22.731 208.508 21.9733 207.316 22.1753C206.222 22.3774 205.278 22.832 204.384 23.4887C202.495 24.802 201.104 26.5195 199.862 28.439C198.868 29.8029 197.974 31.3183 196.98 32.8337Z" fill="#99C33C"/>
<path d="M15.406 27.7823C15.406 27.9338 15.406 28.0854 15.406 28.2369C15.406 28.3884 15.3563 28.4895 15.3563 28.5905C15.3067 28.6915 15.3067 28.7925 15.257 28.8431C15.2073 28.9441 15.1576 28.9946 15.0085 29.0956C14.9091 29.1966 14.6607 29.3482 14.3128 29.6008C13.965 29.8028 13.5674 30.0554 13.0208 30.2574C12.5239 30.4595 11.9276 30.6615 11.2816 30.8131C10.6356 30.9646 9.89025 31.0151 9.14488 31.0151C7.8032 31.0151 6.5609 30.7626 5.46769 30.3079C4.37447 29.8533 3.43033 29.1967 2.68495 28.2874C1.93957 27.3782 1.34327 26.3174 0.896043 25.004C0.498509 23.6907 0.299744 22.1753 0.299744 20.4578C0.299744 18.6899 0.498512 17.124 0.945738 15.7601C1.39296 14.3962 1.98926 13.2344 2.83402 12.2747C3.62909 11.3149 4.57324 10.6077 5.71615 10.1026C6.85906 9.59748 8.05165 9.34491 9.44302 9.34491C10.0393 9.34491 10.6356 9.39542 11.1822 9.49645C11.7288 9.59748 12.2755 9.74901 12.7724 9.95107C13.2693 10.1026 13.6668 10.3047 14.0644 10.5572C14.4619 10.8098 14.7104 10.9613 14.8594 11.1129C15.0085 11.2644 15.1079 11.3654 15.1576 11.4665C15.2073 11.5675 15.257 11.618 15.257 11.719C15.3067 11.8201 15.3067 11.9211 15.3067 12.0726C15.3067 12.2242 15.3067 12.3757 15.3067 12.5778C15.3067 12.7798 15.3067 12.9819 15.257 13.1334C15.257 13.285 15.2073 13.4365 15.1576 13.5375C15.1079 13.6385 15.0582 13.7396 15.0085 13.7901C14.9588 13.8406 14.8594 13.8406 14.8097 13.8406C14.6607 13.8406 14.4619 13.7396 14.1637 13.5375C13.9153 13.3355 13.5674 13.0829 13.1202 12.8303C12.673 12.5778 12.1761 12.3252 11.5798 12.1231C10.9835 11.9211 10.2381 11.8201 9.39334 11.8201C8.44919 11.8201 7.60443 12.0221 6.85905 12.3757C6.11368 12.7293 5.46769 13.285 4.92108 14.0427C4.37447 14.7498 3.97693 15.6591 3.67878 16.7199C3.38063 17.7806 3.23156 18.993 3.23156 20.3063C3.23156 21.6196 3.38063 22.832 3.67878 23.8422C3.97693 24.8525 4.37447 25.7112 4.92108 26.4184C5.46769 27.1256 6.11368 27.6307 6.85905 27.9843C7.65412 28.3379 8.49888 28.54 9.49272 28.54C10.3375 28.54 11.0332 28.4389 11.6792 28.2369C12.2755 28.0348 12.8221 27.7823 13.2693 27.5297C13.7165 27.2771 14.0644 27.0246 14.3625 26.8225C14.6607 26.6205 14.8594 26.5194 15.0085 26.5194C15.1079 26.5194 15.1576 26.5194 15.2073 26.57C15.257 26.6205 15.3067 26.671 15.3563 26.772C15.406 26.873 15.406 26.9741 15.406 27.1761C15.406 27.3277 15.406 27.5297 15.406 27.7823Z" fill="#99C33C"/>
<path d="M29.6676 30.3584C29.6676 30.51 29.6179 30.611 29.5186 30.6615C29.4192 30.712 29.3198 30.7626 29.1707 30.8131C29.0216 30.8636 28.8229 30.8636 28.5247 30.8636C28.2266 30.8636 28.0278 30.8636 27.8787 30.8131C27.7296 30.7626 27.5806 30.712 27.5309 30.6615C27.4315 30.611 27.4315 30.51 27.4315 30.3584V28.8936C26.7855 29.6007 26.0898 30.1059 25.3444 30.51C24.5494 30.9141 23.7543 31.0656 22.8598 31.0656C22.1145 31.0656 21.4188 30.9646 20.7728 30.7625C20.1765 30.5605 19.6299 30.2574 19.1827 29.9038C18.7354 29.4997 18.3876 29.0451 18.1888 28.4894C17.9404 27.9338 17.841 27.3276 17.841 26.6205C17.841 25.8122 17.9901 25.0545 18.3379 24.4484C18.6857 23.8422 19.133 23.3371 19.779 22.933C20.3753 22.5289 21.1703 22.2258 22.0648 22.0237C22.9592 21.8217 23.9531 21.7207 25.096 21.7207H27.0836V20.5589C27.0836 20.0032 27.034 19.4981 26.8849 19.0435C26.7855 18.5888 26.5867 18.2352 26.3383 17.9827C26.0898 17.6796 25.742 17.4775 25.2947 17.326C24.8972 17.1745 24.3506 17.124 23.7543 17.124C23.1083 17.124 22.512 17.225 22.0151 17.3765C21.5182 17.5281 21.0213 17.7301 20.6734 17.8816C20.2759 18.0837 19.9777 18.2352 19.6796 18.3868C19.4311 18.5383 19.2324 18.6393 19.0833 18.6393C18.9839 18.6393 18.9342 18.6394 18.8348 18.5888C18.7851 18.5383 18.7354 18.4878 18.6857 18.3868C18.636 18.2858 18.5864 18.1847 18.5864 18.0332C18.5864 17.8817 18.5367 17.7301 18.5367 17.5786C18.5367 17.326 18.5367 17.0734 18.5864 16.9219C18.636 16.7704 18.7354 16.6188 18.8348 16.4673C18.9839 16.3157 19.2324 16.1642 19.5802 15.9621C19.928 15.7601 20.3256 15.6085 20.8225 15.457C21.2697 15.3055 21.7666 15.1539 22.3132 15.0529C22.8599 14.9519 23.4065 14.9014 23.9531 14.9014C24.9966 14.9014 25.891 15.0024 26.5867 15.255C27.3321 15.5075 27.8787 15.8611 28.3756 16.3157C28.8229 16.7704 29.1707 17.3765 29.3695 18.0332C29.5682 18.7404 29.6676 19.4981 29.6676 20.4578V30.3584ZM27.034 23.6402H24.7481C24.0028 23.6402 23.4065 23.6907 22.8598 23.8422C22.3132 23.9432 21.866 24.1453 21.5182 24.3979C21.1703 24.6504 20.9219 24.9535 20.7231 25.2566C20.574 25.6102 20.4746 26.0143 20.4746 26.4184C20.4746 27.1761 20.7231 27.7823 21.1703 28.2369C21.6672 28.6915 22.3132 28.8936 23.158 28.8936C23.8537 28.8936 24.4997 28.6915 25.096 28.3379C25.6923 27.9843 26.3383 27.4287 26.9843 26.671V23.6402H27.034Z" fill="#99C33C"/>
<path d="M47.8051 22.7814C47.8051 24.0443 47.656 25.2061 47.4075 26.2669C47.1591 27.2771 46.7118 28.1359 46.2149 28.8936C45.6683 29.6007 45.0223 30.1564 44.2272 30.5605C43.4322 30.9646 42.5377 31.1161 41.5439 31.1161C41.0967 31.1161 40.6991 31.0656 40.3513 30.9646C40.0034 30.8636 39.6556 30.7626 39.3078 30.5605C38.9599 30.3584 38.6121 30.1564 38.2642 29.8533C37.9164 29.5502 37.5685 29.2471 37.171 28.843V36.1675C37.171 36.2685 37.171 36.319 37.1213 36.42C37.0716 36.4706 37.0219 36.5211 36.9226 36.5716C36.8232 36.6221 36.6741 36.6726 36.525 36.6726C36.3759 36.6726 36.1275 36.7231 35.879 36.7231C35.6306 36.7231 35.4318 36.7231 35.233 36.6726C35.084 36.6726 34.9349 36.6221 34.8355 36.5716C34.7361 36.5211 34.6864 36.4706 34.6367 36.42C34.587 36.3695 34.587 36.2685 34.587 36.1675V15.6591C34.587 15.558 34.587 15.5075 34.6367 15.4065C34.6864 15.356 34.7361 15.3055 34.8355 15.255C34.9349 15.2044 35.0343 15.2044 35.1833 15.1539C35.3324 15.1539 35.5312 15.1539 35.73 15.1539C35.9784 15.1539 36.1275 15.1539 36.2766 15.1539C36.4256 15.1539 36.525 15.2044 36.6244 15.255C36.7238 15.3055 36.7735 15.356 36.8232 15.4065C36.8729 15.457 36.8729 15.558 36.8729 15.6591V17.6291C37.3201 17.1745 37.7176 16.7704 38.1648 16.4168C38.5624 16.0632 38.9599 15.8106 39.4071 15.558C39.8047 15.356 40.2519 15.1539 40.6991 15.0529C41.1464 14.9519 41.5936 14.9014 42.0905 14.9014C43.134 14.9014 44.0285 15.1034 44.7739 15.5075C45.5192 15.9116 46.1155 16.4673 46.5628 17.225C47.01 17.9322 47.3578 18.7909 47.6063 19.7506C47.7057 20.7104 47.8051 21.7207 47.8051 22.7814ZM45.072 23.0845C45.072 22.3268 45.0223 21.6196 44.9229 20.9124C44.8235 20.2053 44.6248 19.5991 44.3266 19.0435C44.0285 18.4878 43.6806 18.0837 43.2334 17.7301C42.7862 17.427 42.1899 17.225 41.4942 17.225C41.1464 17.225 40.7985 17.2755 40.5004 17.3765C40.1525 17.4775 39.8047 17.6291 39.5065 17.8816C39.1587 18.0837 38.8108 18.3868 38.4133 18.7404C38.0158 19.094 37.6182 19.5486 37.2207 20.1042V25.9638C37.9661 26.873 38.6618 27.5802 39.3078 28.0348C39.9538 28.4895 40.6494 28.742 41.3948 28.742C42.0408 28.742 42.6371 28.5905 43.134 28.2369C43.6309 27.9338 43.9788 27.4792 44.2769 26.9235C44.5751 26.3679 44.7739 25.7617 44.9229 25.1051C44.9726 24.4484 45.072 23.7917 45.072 23.0845Z" fill="#99C33C"/>
<path d="M54.7618 10.7088C54.7618 11.3149 54.6624 11.7696 54.414 12.0221C54.1655 12.2747 53.768 12.3757 53.122 12.3757C52.5257 12.3757 52.0785 12.2747 51.83 12.0221C51.5816 11.8201 51.4822 11.3654 51.4822 10.7593C51.4822 10.1531 51.5816 9.6985 51.83 9.44594C52.0785 9.19337 52.476 9.09235 53.122 9.09235C53.7183 9.09235 54.1655 9.19337 54.414 9.44594C54.6127 9.64799 54.7618 10.1026 54.7618 10.7088ZM54.4637 30.3584C54.4637 30.4595 54.4637 30.51 54.414 30.5605C54.3643 30.611 54.3146 30.6615 54.2152 30.712C54.1158 30.7626 53.9668 30.8131 53.8177 30.8131C53.6686 30.8131 53.4201 30.8636 53.1717 30.8636C52.9232 30.8636 52.7245 30.8636 52.5257 30.8131C52.3766 30.8131 52.2275 30.7626 52.1282 30.712C52.0288 30.6615 51.9791 30.611 51.9294 30.5605C51.8797 30.51 51.8797 30.409 51.8797 30.3584V15.6591C51.8797 15.5581 51.8797 15.5075 51.9294 15.457C51.9791 15.4065 52.0288 15.356 52.1282 15.3055C52.2275 15.255 52.3766 15.2045 52.5257 15.2045C52.6748 15.2045 52.9232 15.1539 53.1717 15.1539C53.4201 15.1539 53.6686 15.1539 53.8177 15.2045C53.9668 15.2045 54.1158 15.255 54.2152 15.3055C54.3146 15.356 54.3643 15.4065 54.414 15.457C54.4637 15.5075 54.4637 15.6086 54.4637 15.6591V30.3584Z" fill="#99C33C"/>
<path d="M66.837 29.2977C66.837 29.6007 66.837 29.8533 66.7873 30.0554C66.7376 30.2574 66.6879 30.3584 66.5885 30.4595C66.4891 30.5605 66.3897 30.611 66.191 30.712C66.0419 30.8131 65.8431 30.8636 65.5947 30.9141C65.3959 30.9646 65.1474 31.0151 64.899 31.0151C64.6505 31.0656 64.4021 31.0656 64.1536 31.0656C63.4082 31.0656 62.7623 30.9646 62.2156 30.7625C61.669 30.5605 61.2218 30.2574 60.9237 29.8533C60.5758 29.4492 60.3274 28.9441 60.1783 28.2874C60.0292 27.6812 59.9298 26.9235 59.9298 26.0648V17.4775H57.9422C57.7931 17.4775 57.644 17.3765 57.5446 17.225C57.4452 17.0734 57.3955 16.7704 57.3955 16.3662C57.3955 16.1642 57.3955 15.9621 57.4452 15.8611C57.4949 15.7096 57.4949 15.6085 57.5446 15.5075C57.5943 15.4065 57.644 15.356 57.6937 15.3055C57.7434 15.255 57.8428 15.255 57.9422 15.255H59.9298V11.7695C59.9298 11.6685 59.9298 11.618 59.9795 11.5675C60.0292 11.517 60.0789 11.4665 60.1783 11.4159C60.2777 11.3654 60.4267 11.3149 60.5758 11.3149C60.7249 11.3149 60.9734 11.2644 61.2218 11.2644C61.4703 11.2644 61.7187 11.2644 61.8678 11.3149C62.0169 11.3149 62.1659 11.3654 62.2653 11.4159C62.3647 11.4665 62.4144 11.517 62.4641 11.5675C62.5138 11.618 62.5138 11.719 62.5138 11.7695V15.255H66.2407C66.34 15.255 66.3897 15.255 66.4891 15.3055C66.5388 15.356 66.5885 15.4065 66.6382 15.5075C66.6879 15.6085 66.7376 15.7096 66.7376 15.8611C66.7376 16.0127 66.7873 16.1642 66.7873 16.3662C66.7873 16.7704 66.7376 17.0229 66.6382 17.225C66.5388 17.3765 66.3897 17.4775 66.2407 17.4775H62.5138V25.6607C62.5138 26.671 62.6629 27.4287 62.961 27.9338C63.2592 28.4389 63.8058 28.6915 64.5512 28.6915C64.7996 28.6915 64.9984 28.6915 65.1971 28.641C65.3959 28.5905 65.545 28.54 65.6941 28.4894C65.8431 28.4389 65.9922 28.3884 66.0916 28.3379C66.191 28.2874 66.2904 28.2874 66.3897 28.2874C66.4394 28.2874 66.4891 28.2874 66.5388 28.3379C66.5885 28.3884 66.6382 28.4389 66.6382 28.4894C66.6879 28.5905 66.6879 28.6915 66.6879 28.7925C66.837 28.8936 66.837 29.0956 66.837 29.2977Z" fill="#99C33C"/>
<path d="M80.85 30.3584C80.85 30.51 80.8003 30.611 80.701 30.6615C80.6016 30.712 80.5022 30.7626 80.3531 30.8131C80.204 30.8636 80.0053 30.8636 79.7071 30.8636C79.409 30.8636 79.2102 30.8636 79.0611 30.8131C78.9121 30.7626 78.763 30.712 78.7133 30.6615C78.6139 30.611 78.6139 30.51 78.6139 30.3584V28.8936C77.9679 29.6007 77.2722 30.1059 76.5269 30.51C75.7318 30.9141 74.9367 31.0656 74.0423 31.0656C73.2969 31.0656 72.6012 30.9646 71.9552 30.7625C71.3589 30.5605 70.8123 30.2574 70.3651 29.9038C69.9179 29.4997 69.57 29.0451 69.3712 28.4894C69.1228 27.9338 69.0234 27.3276 69.0234 26.6205C69.0234 25.8122 69.1725 25.0545 69.5203 24.4484C69.8682 23.8422 70.3154 23.3371 70.9614 22.933C71.5577 22.5289 72.3527 22.2258 73.2472 22.0237C74.1416 21.8217 75.1355 21.7207 76.2784 21.7207H78.2661V20.5589C78.2661 20.0032 78.2164 19.4981 78.0673 19.0435C77.9679 18.5888 77.7691 18.2352 77.5207 17.9827C77.2722 17.6796 76.9244 17.4775 76.4772 17.326C76.0796 17.1745 75.533 17.124 74.9367 17.124C74.2907 17.124 73.6944 17.225 73.1975 17.3765C72.7006 17.5281 72.2037 17.7301 71.8558 17.8816C71.4583 18.0837 71.1601 18.2352 70.862 18.3868C70.6135 18.5383 70.4148 18.6393 70.2657 18.6393C70.1663 18.6393 70.1166 18.6394 70.0172 18.5888C69.9675 18.5383 69.9179 18.4878 69.8682 18.3868C69.8185 18.2858 69.7688 18.1847 69.7688 18.0332C69.7688 17.8817 69.7191 17.7301 69.7191 17.5786C69.7191 17.326 69.7191 17.0734 69.7688 16.9219C69.8185 16.7704 69.9179 16.6188 70.0172 16.4673C70.1663 16.3157 70.4148 16.1642 70.7626 15.9621C71.1105 15.7601 71.508 15.6085 72.0049 15.457C72.4521 15.3055 72.949 15.1539 73.4957 15.0529C74.0423 14.9519 74.5889 14.9014 75.1355 14.9014C76.179 14.9014 77.0735 15.0024 77.7691 15.255C78.5145 15.5075 79.0611 15.8611 79.5581 16.3157C80.0053 16.7704 80.3531 17.3765 80.5519 18.0332C80.7507 18.7404 80.85 19.4981 80.85 20.4578V30.3584ZM78.2164 23.6402H75.9306C75.1852 23.6402 74.5889 23.6907 74.0423 23.8422C73.4957 23.9432 73.0484 24.1453 72.7006 24.3979C72.3528 24.6504 72.1043 24.9535 71.9055 25.2566C71.7565 25.6102 71.6571 26.0143 71.6571 26.4184C71.6571 27.1761 71.9055 27.7823 72.3528 28.2369C72.8497 28.6915 73.4957 28.8936 74.3404 28.8936C75.0361 28.8936 75.6821 28.6915 76.2784 28.3379C76.8747 27.9843 77.5207 27.4287 78.1667 26.671V23.6402H78.2164Z" fill="#99C33C"/>
<path d="M88.3534 30.3585C88.3534 30.4595 88.3534 30.51 88.3037 30.5605C88.254 30.6111 88.2043 30.6616 88.1049 30.7121C88.0056 30.7626 87.8565 30.8131 87.7074 30.8131C87.5583 30.8131 87.3099 30.8636 87.0614 30.8636C86.813 30.8636 86.6142 30.8636 86.4154 30.8131C86.2664 30.8131 86.1173 30.7626 86.0179 30.7121C85.9185 30.6616 85.8688 30.6111 85.8192 30.5605C85.7695 30.51 85.7695 30.409 85.7695 30.3585V8.53672C85.7695 8.43569 85.7695 8.38518 85.8192 8.28415C85.8688 8.23364 85.9185 8.18313 86.0179 8.13261C86.1173 8.0821 86.2664 8.03159 86.4154 8.03159C86.5645 8.03159 86.813 7.98108 87.0614 7.98108C87.3099 7.98108 87.5583 7.98107 87.7074 8.03159C87.8565 8.03159 88.0056 8.0821 88.1049 8.13261C88.2043 8.18313 88.254 8.23364 88.3037 8.28415C88.3534 8.33467 88.3534 8.43569 88.3534 8.53672V30.3585Z" fill="#99C33C"/>
<path d="M109.522 19.9022C109.522 21.7207 109.274 23.3371 108.827 24.7009C108.38 26.0648 107.684 27.1761 106.789 28.0853C105.895 28.9946 104.802 29.6512 103.559 30.1059C102.267 30.5605 100.727 30.7625 98.9878 30.7625H94.5653C94.3168 30.7625 94.0683 30.6615 93.8696 30.51C93.6708 30.3584 93.5217 30.0554 93.5217 29.6007V10.7593C93.5217 10.3552 93.6211 10.0521 93.8696 9.85004C94.0683 9.6985 94.3168 9.59747 94.5653 9.59747H99.286C101.075 9.59747 102.615 9.85004 103.858 10.3047C105.1 10.7593 106.143 11.4665 106.988 12.3252C107.833 13.2344 108.479 14.2952 108.876 15.558C109.324 16.8714 109.522 18.2858 109.522 19.9022ZM106.64 20.0032C106.64 18.8414 106.491 17.7806 106.243 16.8209C105.945 15.8611 105.547 15.0024 104.951 14.2447C104.355 13.5375 103.609 12.9819 102.715 12.5778C101.82 12.1736 100.628 11.9716 99.1866 11.9716H96.3542V28.3884H99.1866C100.528 28.3884 101.621 28.2369 102.566 27.8833C103.46 27.5297 104.255 27.0246 104.851 26.3174C105.448 25.6102 105.895 24.7515 106.243 23.6907C106.442 22.6804 106.64 21.4176 106.64 20.0032Z" fill="white"/>
<path d="M125.822 22.3773C125.822 22.7814 125.722 23.0845 125.523 23.2866C125.325 23.4886 125.076 23.5391 124.828 23.5391H115.287C115.287 24.3473 115.386 25.105 115.535 25.7617C115.684 26.4184 115.983 26.974 116.33 27.4287C116.728 27.8833 117.175 28.2369 117.821 28.4894C118.417 28.742 119.163 28.843 120.008 28.843C120.703 28.843 121.3 28.7925 121.846 28.6915C122.393 28.5905 122.84 28.4389 123.238 28.2874C123.635 28.1358 123.933 28.0348 124.182 27.8833C124.43 27.7822 124.629 27.7317 124.778 27.7317C124.877 27.7317 124.927 27.7317 124.977 27.7822C125.026 27.8328 125.076 27.8833 125.126 27.9338C125.176 28.0348 125.176 28.1358 125.176 28.2369C125.176 28.3884 125.176 28.5399 125.176 28.742C125.176 28.8935 125.176 28.9946 125.176 29.0956C125.176 29.1966 125.176 29.2976 125.126 29.3482C125.126 29.4492 125.076 29.4997 125.026 29.5502C124.977 29.6007 124.927 29.7017 124.877 29.7523C124.828 29.8028 124.629 29.9038 124.331 30.0553C124.033 30.2069 123.685 30.3079 123.188 30.4595C122.741 30.611 122.194 30.712 121.598 30.813C121.001 30.9141 120.355 30.9646 119.66 30.9646C118.467 30.9646 117.424 30.813 116.529 30.4595C115.635 30.1059 114.889 29.6007 114.293 28.9441C113.697 28.2874 113.2 27.4286 112.902 26.4689C112.604 25.4586 112.454 24.2968 112.454 22.9835C112.454 21.7206 112.604 20.6094 112.951 19.5991C113.25 18.5888 113.746 17.7301 114.343 17.0229C114.939 16.3157 115.684 15.7601 116.529 15.4065C117.374 15.0529 118.368 14.8508 119.411 14.8508C120.554 14.8508 121.498 15.0529 122.293 15.4065C123.088 15.7601 123.734 16.2652 124.281 16.9219C124.778 17.528 125.176 18.2857 125.424 19.1445C125.672 20.0032 125.772 20.9124 125.772 21.8217V22.3773H125.822ZM123.138 21.5691C123.188 20.1547 122.84 19.0434 122.194 18.2352C121.548 17.427 120.554 17.0229 119.312 17.0229C118.666 17.0229 118.07 17.1239 117.573 17.3765C117.076 17.6291 116.678 17.9827 116.33 18.3868C115.983 18.7909 115.734 19.296 115.535 19.8517C115.337 20.4073 115.237 20.9629 115.237 21.5691H123.138Z" fill="white"/>
<path d="M142.269 30.3584C142.269 30.4595 142.269 30.51 142.219 30.5605C142.17 30.611 142.12 30.6615 142.021 30.712C141.921 30.7626 141.772 30.8131 141.623 30.8131C141.474 30.8131 141.226 30.8636 140.977 30.8636C140.729 30.8636 140.48 30.8636 140.331 30.8131C140.182 30.8131 140.033 30.7626 139.934 30.712C139.834 30.6615 139.785 30.611 139.735 30.5605C139.685 30.51 139.685 30.409 139.685 30.3584V21.7712C139.685 20.9124 139.635 20.2558 139.486 19.7506C139.337 19.2455 139.188 18.7909 138.94 18.4373C138.691 18.0837 138.393 17.7806 137.996 17.5786C137.598 17.3765 137.151 17.2755 136.654 17.2755C136.008 17.2755 135.312 17.5281 134.666 17.9827C134.02 18.4373 133.325 19.1445 132.579 20.1042V30.3584C132.579 30.4595 132.579 30.51 132.53 30.5605C132.48 30.611 132.43 30.6615 132.331 30.712C132.231 30.7626 132.082 30.8131 131.933 30.8131C131.784 30.8131 131.536 30.8636 131.287 30.8636C131.039 30.8636 130.84 30.8636 130.641 30.8131C130.492 30.8131 130.343 30.7626 130.244 30.712C130.144 30.6615 130.095 30.611 130.045 30.5605C129.995 30.51 129.995 30.409 129.995 30.3584V15.6591C129.995 15.558 129.995 15.5075 130.045 15.457C130.095 15.4065 130.144 15.356 130.244 15.3055C130.343 15.255 130.442 15.2044 130.592 15.2044C130.741 15.2044 130.939 15.2044 131.188 15.2044C131.436 15.2044 131.635 15.2044 131.784 15.2044C131.933 15.2044 132.082 15.255 132.132 15.3055C132.231 15.356 132.281 15.4065 132.331 15.457C132.38 15.5075 132.38 15.6086 132.38 15.6591V17.5786C133.176 16.6693 134.02 15.9621 134.815 15.558C135.61 15.1034 136.455 14.9014 137.25 14.9014C138.194 14.9014 139.039 15.0529 139.685 15.4065C140.331 15.7601 140.878 16.1642 141.275 16.7198C141.673 17.2755 141.971 17.9322 142.17 18.6899C142.369 19.4476 142.418 20.3063 142.418 21.3671V30.3584H142.269Z" fill="white"/>
<path d="M154.344 29.2977C154.344 29.6007 154.344 29.8533 154.295 30.0554C154.245 30.2574 154.195 30.3584 154.096 30.4595C153.997 30.5605 153.897 30.611 153.698 30.712C153.549 30.8131 153.351 30.8636 153.102 30.9141C152.903 30.9646 152.655 31.0151 152.406 31.0151C152.158 31.0656 151.909 31.0656 151.661 31.0656C150.916 31.0656 150.27 30.9646 149.723 30.7625C149.176 30.5605 148.729 30.2574 148.431 29.8533C148.083 29.4492 147.835 28.9441 147.686 28.2874C147.537 27.6812 147.437 26.9235 147.437 26.0648V17.4775H145.4C145.251 17.4775 145.102 17.3765 145.002 17.225C144.903 17.0734 144.853 16.7704 144.853 16.3662C144.853 16.1642 144.853 15.9621 144.903 15.8611C144.953 15.7096 144.953 15.6085 145.002 15.5075C145.052 15.4065 145.102 15.356 145.151 15.3055C145.201 15.255 145.3 15.255 145.4 15.255H147.388V11.7695C147.388 11.6685 147.388 11.618 147.437 11.5675C147.487 11.517 147.537 11.4665 147.636 11.4159C147.735 11.3654 147.884 11.3149 148.034 11.3149C148.183 11.3149 148.431 11.2644 148.68 11.2644C148.928 11.2644 149.176 11.2644 149.326 11.3149C149.475 11.3149 149.624 11.3654 149.723 11.4159C149.822 11.4665 149.872 11.517 149.922 11.5675C149.972 11.618 149.972 11.719 149.972 11.7695V15.255H153.698C153.798 15.255 153.847 15.255 153.947 15.3055C153.997 15.356 154.046 15.4065 154.096 15.5075C154.146 15.6085 154.195 15.7096 154.195 15.8611C154.195 16.0127 154.245 16.1642 154.245 16.3662C154.245 16.7704 154.195 17.0229 154.096 17.225C153.997 17.3765 153.847 17.4775 153.698 17.4775H149.972V25.6607C149.972 26.671 150.121 27.4287 150.419 27.9338C150.717 28.4389 151.263 28.6915 152.009 28.6915C152.257 28.6915 152.456 28.6915 152.655 28.641C152.854 28.5905 153.003 28.54 153.152 28.4894C153.301 28.4389 153.45 28.3884 153.549 28.3379C153.649 28.2874 153.748 28.2874 153.847 28.2874C153.897 28.2874 153.947 28.2874 153.997 28.3379C154.046 28.3884 154.096 28.4389 154.096 28.4894C154.146 28.5905 154.146 28.6915 154.146 28.7925C154.295 28.8936 154.344 29.0956 154.344 29.2977Z" fill="white"/>
<path d="M168.308 30.3584C168.308 30.51 168.258 30.611 168.159 30.6615C168.059 30.712 167.96 30.7626 167.811 30.8131C167.662 30.8636 167.463 30.8636 167.165 30.8636C166.867 30.8636 166.668 30.8636 166.519 30.8131C166.37 30.7626 166.221 30.712 166.171 30.6615C166.072 30.611 166.072 30.51 166.072 30.3584V28.8936C165.426 29.6007 164.73 30.1059 163.985 30.51C163.189 30.9141 162.394 31.0656 161.5 31.0656C160.755 31.0656 160.059 30.9646 159.413 30.7625C158.817 30.5605 158.27 30.2574 157.823 29.9038C157.376 29.4997 157.028 29.0451 156.829 28.4894C156.63 27.9338 156.481 27.3276 156.481 26.6205C156.481 25.8122 156.63 25.0545 156.978 24.4484C157.326 23.8422 157.773 23.3371 158.419 22.933C159.015 22.5289 159.81 22.2258 160.705 22.0237C161.599 21.8217 162.593 21.7207 163.736 21.7207H165.724V20.5589C165.724 20.0032 165.674 19.4981 165.525 19.0435C165.426 18.5888 165.227 18.2352 164.978 17.9827C164.73 17.6796 164.382 17.4775 163.935 17.326C163.537 17.1745 162.991 17.124 162.394 17.124C161.748 17.124 161.152 17.225 160.655 17.3765C160.158 17.5281 159.661 17.7301 159.314 17.8816C158.916 18.0837 158.618 18.2352 158.32 18.3868C158.071 18.5383 157.872 18.6393 157.723 18.6393C157.624 18.6393 157.574 18.6394 157.475 18.5888C157.425 18.5383 157.376 18.4878 157.326 18.3868C157.276 18.2858 157.226 18.1847 157.226 18.0332C157.226 17.8817 157.177 17.7301 157.177 17.5786C157.177 17.326 157.177 17.0734 157.226 16.9219C157.276 16.7704 157.376 16.6188 157.475 16.4673C157.624 16.3157 157.872 16.1642 158.22 15.9621C158.568 15.7601 158.966 15.6085 159.463 15.457C159.91 15.3055 160.407 15.1539 160.953 15.0529C161.5 14.9519 162.047 14.9014 162.593 14.9014C163.637 14.9014 164.531 15.0024 165.227 15.255C165.972 15.5075 166.519 15.8611 167.016 16.3157C167.463 16.7704 167.811 17.3765 168.01 18.0332C168.208 18.7404 168.308 19.4981 168.308 20.4578V30.3584ZM165.674 23.6402H163.388C162.643 23.6402 162.047 23.6907 161.5 23.8422C160.953 23.9432 160.506 24.1453 160.158 24.3979C159.81 24.6504 159.562 24.9535 159.363 25.2566C159.214 25.6102 159.115 26.0143 159.115 26.4184C159.115 27.1761 159.363 27.7823 159.81 28.2369C160.307 28.6915 160.953 28.8936 161.798 28.8936C162.494 28.8936 163.14 28.6915 163.736 28.3379C164.332 27.9843 164.978 27.4287 165.624 26.671V23.6402H165.674Z" fill="white"/>
<path d="M175.811 30.3585C175.811 30.4595 175.811 30.51 175.762 30.5605C175.712 30.6111 175.662 30.6616 175.563 30.7121C175.463 30.7626 175.314 30.8131 175.165 30.8131C175.016 30.8131 174.768 30.8636 174.519 30.8636C174.271 30.8636 174.072 30.8636 173.873 30.8131C173.724 30.8131 173.575 30.7626 173.476 30.7121C173.376 30.6616 173.327 30.6111 173.277 30.5605C173.227 30.51 173.227 30.409 173.227 30.3585V8.53672C173.227 8.43569 173.227 8.38518 173.277 8.28415C173.327 8.23364 173.376 8.18313 173.476 8.13261C173.575 8.0821 173.724 8.03159 173.873 8.03159C174.022 8.03159 174.271 7.98108 174.519 7.98108C174.768 7.98108 175.016 7.98107 175.165 8.03159C175.314 8.03159 175.463 8.0821 175.563 8.13261C175.662 8.18313 175.712 8.23364 175.762 8.28415C175.811 8.33467 175.811 8.43569 175.811 8.53672V30.3585Z" fill="white"/>
<path d="M97.0496 47.7351C97.0496 47.8362 97.0496 47.9372 97.0496 47.9877C97.0496 48.0382 96.9999 48.1392 96.9999 48.1898C96.9502 48.2403 96.9502 48.2908 96.9005 48.2908C96.8508 48.2908 96.8508 48.3413 96.8011 48.3413H91.8816C91.7822 48.3413 91.6332 48.2908 91.5338 48.2403C91.4344 48.1392 91.3847 47.9877 91.3847 47.7856V38.4912C91.3847 38.2891 91.4344 38.1376 91.5338 38.0366C91.6332 37.9356 91.7325 37.9355 91.8816 37.9355H96.7514C96.8011 37.9355 96.8508 37.9355 96.8508 37.9861C96.9005 37.9861 96.9005 38.0366 96.9502 38.0871C96.9502 38.1376 96.9999 38.1881 96.9999 38.2891C96.9999 38.3397 96.9999 38.4407 96.9999 38.5417C96.9999 38.6427 96.9999 38.7438 96.9999 38.7943C96.9999 38.8448 96.9502 38.9458 96.9502 38.9963C96.9502 39.0468 96.9005 39.0974 96.8508 39.0974C96.8011 39.0974 96.8011 39.1479 96.7514 39.1479H92.7264V42.4312H96.1551C96.2048 42.4312 96.2545 42.4312 96.2545 42.4817C96.3042 42.4817 96.3042 42.5323 96.3539 42.5828C96.3539 42.6333 96.4036 42.6838 96.4036 42.7848C96.4036 42.8353 96.4036 42.9364 96.4036 43.0374C96.4036 43.1384 96.4036 43.2394 96.4036 43.29C96.4036 43.3405 96.3539 43.391 96.3539 43.4415C96.3539 43.492 96.3042 43.492 96.2545 43.5425C96.2048 43.5425 96.2048 43.593 96.1551 43.593H92.7264V47.331H96.8011C96.8508 47.331 96.9005 47.331 96.9005 47.3815C96.9502 47.3815 96.9502 47.432 96.9999 47.4826C97.0496 47.5331 97.0496 47.5836 97.0496 47.6846C97.0496 47.5331 97.0496 47.6341 97.0496 47.7351Z" fill="white"/>
<path d="M106.739 50.968C106.739 51.0185 106.739 51.069 106.69 51.069C106.69 51.1195 106.64 51.1195 106.59 51.17C106.541 51.17 106.491 51.2205 106.391 51.2205C106.292 51.2205 106.193 51.2205 106.093 51.2205C105.944 51.2205 105.845 51.2205 105.795 51.2205C105.696 51.2205 105.646 51.17 105.596 51.17C105.547 51.17 105.497 51.1195 105.497 51.069C105.497 51.0185 105.447 51.0185 105.447 50.968V47.2805C105.249 47.4825 105.05 47.6846 104.851 47.8361C104.652 47.9877 104.454 48.0887 104.255 48.1897C104.056 48.2908 103.857 48.3413 103.658 48.3918C103.46 48.4423 103.261 48.4423 103.062 48.4423C102.565 48.4423 102.118 48.3413 101.72 48.1392C101.373 47.9372 101.074 47.6341 100.826 47.2805C100.578 46.9269 100.428 46.5228 100.329 46.0177C100.23 45.563 100.18 45.0579 100.18 44.5023C100.18 43.8961 100.23 43.3405 100.379 42.8353C100.528 42.3302 100.727 41.9261 100.975 41.5725C101.224 41.2189 101.571 40.9663 101.919 40.7643C102.317 40.5622 102.764 40.4612 103.261 40.4612C103.46 40.4612 103.658 40.4612 103.857 40.5117C104.056 40.5622 104.205 40.6127 104.404 40.7137C104.603 40.8148 104.752 40.9663 104.95 41.1179C105.149 41.2694 105.348 41.4714 105.547 41.6735V40.8148C105.547 40.7643 105.547 40.7137 105.596 40.7137C105.596 40.6632 105.646 40.6632 105.696 40.6127C105.745 40.6127 105.795 40.5622 105.895 40.5622C105.944 40.5622 106.044 40.5622 106.193 40.5622C106.292 40.5622 106.391 40.5622 106.441 40.5622C106.491 40.5622 106.59 40.5622 106.64 40.6127C106.69 40.6127 106.739 40.6632 106.739 40.7137C106.739 40.7643 106.789 40.7643 106.789 40.8148V50.968H106.739ZM105.447 42.9869C105.1 42.5322 104.752 42.1786 104.404 41.9766C104.056 41.724 103.708 41.623 103.36 41.623C103.012 41.623 102.764 41.724 102.516 41.8756C102.267 42.0271 102.118 42.2292 101.969 42.5322C101.82 42.7848 101.72 43.0879 101.671 43.4415C101.621 43.7951 101.571 44.0981 101.571 44.4517C101.571 44.8053 101.621 45.1589 101.671 45.5125C101.72 45.8661 101.82 46.1692 101.969 46.4218C102.118 46.6743 102.267 46.9269 102.516 47.0784C102.764 47.23 103.012 47.331 103.36 47.331C103.559 47.331 103.708 47.331 103.857 47.2805C104.006 47.23 104.205 47.1289 104.354 47.0279C104.503 46.9269 104.702 46.7754 104.901 46.5733C105.099 46.3712 105.298 46.1692 105.497 45.9166V42.9869H105.447Z" fill="white"/>
<path d="M117.075 48.0887C117.075 48.1392 117.075 48.1897 117.026 48.1897C117.026 48.2402 116.976 48.2402 116.926 48.2907C116.877 48.3412 116.827 48.3412 116.727 48.3412C116.628 48.3412 116.578 48.3412 116.429 48.3412C116.33 48.3412 116.231 48.3412 116.131 48.3412C116.032 48.3412 115.982 48.2907 115.932 48.2907C115.883 48.2907 115.833 48.2402 115.833 48.1897C115.833 48.1392 115.833 48.1392 115.833 48.0887V47.1289C115.435 47.5835 115.038 47.9371 114.64 48.1392C114.243 48.3412 113.845 48.4423 113.448 48.4423C112.951 48.4423 112.553 48.3412 112.255 48.1897C111.907 48.0382 111.659 47.7856 111.46 47.533C111.261 47.2804 111.112 46.9269 111.013 46.5733C110.914 46.2197 110.864 45.765 110.864 45.2094V40.8147C110.864 40.7642 110.864 40.7137 110.914 40.7137C110.914 40.6632 110.963 40.6632 111.013 40.6127C111.063 40.6127 111.112 40.5622 111.212 40.5622C111.311 40.5622 111.41 40.5622 111.51 40.5622C111.659 40.5622 111.758 40.5622 111.808 40.5622C111.907 40.5622 111.957 40.5622 112.007 40.6127C112.056 40.6127 112.106 40.6632 112.106 40.7137C112.106 40.7642 112.156 40.7642 112.156 40.8147V45.0073C112.156 45.4114 112.206 45.765 112.255 46.0176C112.305 46.2702 112.404 46.4722 112.553 46.6743C112.653 46.8763 112.852 46.9774 113.001 47.0784C113.199 47.1794 113.398 47.2299 113.647 47.2299C113.994 47.2299 114.293 47.1289 114.64 46.8763C114.988 46.6238 115.286 46.2702 115.684 45.8156V40.7642C115.684 40.7137 115.684 40.6632 115.734 40.6632C115.734 40.6127 115.783 40.6127 115.833 40.5622C115.883 40.5622 115.932 40.5117 116.032 40.5117C116.131 40.5117 116.231 40.5117 116.33 40.5117C116.479 40.5117 116.578 40.5117 116.628 40.5117C116.727 40.5117 116.777 40.5117 116.827 40.5622C116.877 40.5622 116.926 40.6127 116.926 40.6632C116.926 40.7137 116.976 40.7137 116.976 40.7642V48.0887H117.075Z" fill="white"/>
<path d="M122.69 38.3901C122.69 38.6932 122.641 38.8953 122.492 39.0468C122.392 39.1478 122.144 39.1984 121.846 39.1984C121.548 39.1984 121.349 39.1478 121.2 39.0468C121.1 38.9458 121.051 38.7437 121.051 38.4407C121.051 38.1376 121.1 37.9355 121.249 37.784C121.349 37.683 121.597 37.6324 121.895 37.6324C122.194 37.6324 122.392 37.683 122.541 37.784C122.641 37.885 122.69 38.0871 122.69 38.3901ZM122.541 48.0887C122.541 48.1392 122.541 48.1897 122.492 48.1897C122.492 48.2402 122.442 48.2402 122.392 48.2907C122.343 48.2907 122.293 48.3413 122.194 48.3413C122.094 48.3413 121.995 48.3413 121.846 48.3413C121.697 48.3413 121.597 48.3413 121.548 48.3413C121.448 48.3413 121.398 48.2907 121.349 48.2907C121.299 48.2907 121.249 48.2402 121.249 48.1897C121.249 48.1392 121.2 48.1392 121.2 48.0887V40.8653C121.2 40.8148 121.2 40.8148 121.249 40.7643C121.249 40.7138 121.299 40.7137 121.349 40.6632C121.398 40.6632 121.448 40.6127 121.548 40.6127C121.647 40.6127 121.746 40.6127 121.846 40.6127C121.995 40.6127 122.094 40.6127 122.194 40.6127C122.293 40.6127 122.343 40.6632 122.392 40.6632C122.442 40.6632 122.492 40.7138 122.492 40.7643C122.492 40.8148 122.541 40.8148 122.541 40.8653V48.0887Z" fill="white"/>
<path d="M133.324 44.3507C133.324 45.0074 133.275 45.563 133.126 46.0682C132.977 46.5733 132.778 46.9774 132.529 47.331C132.281 47.6846 131.933 47.9372 131.535 48.1392C131.138 48.3413 130.691 48.4423 130.194 48.4423C129.995 48.4423 129.796 48.4423 129.597 48.3918C129.399 48.3413 129.25 48.2908 129.051 48.1897C128.902 48.0887 128.703 47.9877 128.554 47.8361C128.405 47.6846 128.206 47.5331 128.007 47.331V50.968C128.007 51.0185 128.007 51.069 127.958 51.069C127.958 51.1195 127.908 51.1195 127.858 51.17C127.809 51.17 127.759 51.2205 127.659 51.2205C127.56 51.2205 127.461 51.2205 127.312 51.2205C127.163 51.2205 127.063 51.2205 127.014 51.2205C126.914 51.2205 126.864 51.17 126.815 51.17C126.765 51.17 126.715 51.1195 126.715 51.069C126.715 51.0185 126.666 51.0185 126.666 50.968V40.8653C126.666 40.8148 126.666 40.7643 126.666 40.7643C126.666 40.7138 126.715 40.7137 126.765 40.6632C126.815 40.6632 126.864 40.6127 126.964 40.6127C127.014 40.6127 127.113 40.6127 127.212 40.6127C127.312 40.6127 127.411 40.6127 127.461 40.6127C127.51 40.6127 127.61 40.6127 127.659 40.6632C127.709 40.6632 127.759 40.7138 127.759 40.7643C127.759 40.8148 127.809 40.8148 127.809 40.8653V41.825C128.007 41.623 128.256 41.4209 128.455 41.2189C128.653 41.0673 128.852 40.9158 129.051 40.8148C129.25 40.7138 129.448 40.6127 129.697 40.5622C129.896 40.5117 130.144 40.4612 130.393 40.4612C130.889 40.4612 131.337 40.5622 131.734 40.7643C132.082 40.9663 132.38 41.2694 132.629 41.623C132.877 41.9766 133.026 42.3807 133.126 42.8353C133.275 43.3405 133.324 43.8456 133.324 44.3507ZM131.983 44.5023C131.983 44.1487 131.933 43.7951 131.883 43.4415C131.834 43.0879 131.734 42.7848 131.585 42.5322C131.436 42.2797 131.287 42.0271 131.039 41.8756C130.79 41.724 130.542 41.623 130.194 41.623C130.045 41.623 129.846 41.6735 129.697 41.724C129.548 41.7745 129.349 41.8756 129.2 41.9766C129.051 42.0776 128.852 42.2291 128.653 42.4312C128.455 42.6333 128.256 42.8353 128.057 43.0879V45.9671C128.405 46.4218 128.753 46.7754 129.101 46.9774C129.448 47.23 129.747 47.331 130.144 47.331C130.492 47.331 130.74 47.23 130.989 47.0784C131.237 46.9269 131.436 46.7248 131.585 46.4218C131.734 46.1692 131.834 45.8661 131.883 45.5125C131.933 45.2094 131.983 44.8558 131.983 44.5023Z" fill="white"/>
<path d="M147.636 48.0887C147.636 48.1392 147.636 48.1897 147.586 48.1897C147.586 48.2402 147.536 48.2402 147.487 48.2907C147.437 48.2907 147.387 48.3412 147.288 48.3412C147.189 48.3412 147.089 48.3412 146.99 48.3412C146.841 48.3412 146.741 48.3412 146.642 48.3412C146.543 48.3412 146.493 48.2907 146.443 48.2907C146.393 48.2907 146.344 48.2402 146.344 48.1897C146.344 48.1392 146.294 48.1392 146.294 48.0887V43.694C146.294 43.3909 146.244 43.0878 146.195 42.8353C146.145 42.5827 146.046 42.3806 145.946 42.1786C145.847 41.9765 145.698 41.8755 145.499 41.7745C145.3 41.6735 145.101 41.623 144.853 41.623C144.555 41.623 144.257 41.724 143.959 41.9765C143.66 42.2291 143.313 42.5827 142.965 43.0373V48.0887C142.965 48.1392 142.965 48.1897 142.915 48.1897C142.915 48.2402 142.865 48.2402 142.816 48.2907C142.766 48.2907 142.716 48.3412 142.617 48.3412C142.518 48.3412 142.418 48.3412 142.319 48.3412C142.219 48.3412 142.07 48.3412 142.021 48.3412C141.921 48.3412 141.872 48.2907 141.822 48.2907C141.772 48.2907 141.722 48.2402 141.722 48.1897C141.722 48.1392 141.673 48.1392 141.673 48.0887V43.694C141.673 43.3909 141.623 43.0878 141.573 42.8353C141.524 42.5827 141.424 42.3806 141.325 42.1786C141.226 41.9765 141.076 41.8755 140.878 41.7745C140.679 41.6735 140.48 41.623 140.232 41.623C139.934 41.623 139.635 41.724 139.337 41.9765C139.039 42.2291 138.691 42.5827 138.343 43.0373V48.0887C138.343 48.1392 138.343 48.1897 138.294 48.1897C138.294 48.2402 138.244 48.2402 138.194 48.2907C138.145 48.2907 138.095 48.3412 137.996 48.3412C137.896 48.3412 137.797 48.3412 137.648 48.3412C137.499 48.3412 137.399 48.3412 137.35 48.3412C137.25 48.3412 137.2 48.2907 137.151 48.2907C137.101 48.2907 137.051 48.2402 137.051 48.1897C137.051 48.1392 137.002 48.1392 137.002 48.0887V40.8653C137.002 40.8147 137.002 40.7642 137.002 40.7642C137.002 40.7137 137.051 40.7137 137.101 40.6632C137.151 40.6632 137.2 40.6127 137.3 40.6127C137.35 40.6127 137.449 40.6127 137.598 40.6127C137.697 40.6127 137.797 40.6127 137.896 40.6127C137.996 40.6127 138.045 40.6127 138.095 40.6632C138.145 40.6632 138.145 40.7137 138.194 40.7642C138.194 40.8147 138.244 40.8147 138.244 40.8653V41.825C138.642 41.3704 139.039 41.0168 139.437 40.8147C139.834 40.6127 140.182 40.5117 140.58 40.5117C140.878 40.5117 141.126 40.5622 141.375 40.6127C141.623 40.6632 141.822 40.7642 142.021 40.9158C142.219 41.0168 142.368 41.1683 142.468 41.3704C142.617 41.5219 142.716 41.724 142.766 41.9765C143.014 41.724 143.213 41.4714 143.462 41.3199C143.66 41.1178 143.859 40.9663 144.058 40.8653C144.257 40.7642 144.455 40.6632 144.654 40.6127C144.853 40.5622 145.052 40.5117 145.201 40.5117C145.648 40.5117 146.046 40.6127 146.344 40.7642C146.642 40.9158 146.89 41.1683 147.089 41.4209C147.288 41.6735 147.437 42.0271 147.487 42.3807C147.586 42.7343 147.586 43.1384 147.586 43.5425V48.0887H147.636Z" fill="white"/>
<path d="M157.872 44.1487C157.872 44.3507 157.823 44.5022 157.723 44.6033C157.624 44.7043 157.524 44.7548 157.375 44.7548H152.704C152.704 45.1589 152.754 45.5125 152.804 45.8661C152.903 46.1692 153.002 46.4723 153.201 46.6743C153.4 46.9269 153.648 47.0784 153.947 47.23C154.245 47.331 154.593 47.432 155.04 47.432C155.388 47.432 155.686 47.3815 155.934 47.331C156.183 47.2805 156.431 47.23 156.63 47.1289C156.829 47.0784 156.978 46.9774 157.127 46.9269C157.276 46.8764 157.326 46.8259 157.425 46.8259C157.475 46.8259 157.475 46.8259 157.524 46.8764C157.574 46.8764 157.574 46.9269 157.574 46.9774C157.574 47.0279 157.624 47.0784 157.624 47.1289C157.624 47.1794 157.624 47.2805 157.624 47.3815C157.624 47.432 157.624 47.533 157.624 47.5836C157.624 47.6341 157.624 47.6846 157.624 47.7351C157.624 47.7856 157.624 47.8361 157.574 47.8361C157.574 47.8866 157.524 47.8866 157.524 47.9372C157.475 47.9877 157.425 48.0382 157.276 48.0887C157.127 48.1392 156.928 48.2402 156.729 48.2907C156.481 48.3412 156.232 48.3918 155.934 48.4423C155.636 48.4928 155.338 48.5433 154.99 48.5433C154.394 48.5433 153.897 48.4423 153.45 48.2907C153.002 48.1392 152.655 47.8866 152.356 47.533C152.058 47.23 151.81 46.7753 151.661 46.3207C151.512 45.8156 151.412 45.2599 151.412 44.6033C151.412 43.9971 151.512 43.4415 151.661 42.9363C151.81 42.4312 152.058 42.0271 152.356 41.6735C152.655 41.3199 153.002 41.0674 153.45 40.8653C153.897 40.6632 154.344 40.6127 154.891 40.6127C155.437 40.6127 155.934 40.7138 156.332 40.8653C156.729 41.0674 157.027 41.2694 157.326 41.623C157.574 41.9261 157.773 42.2797 157.872 42.7343C157.972 43.1384 158.071 43.593 158.071 44.0476V44.1487H157.872ZM156.58 43.7951C156.58 43.0879 156.431 42.5322 156.133 42.1281C155.835 41.724 155.338 41.522 154.692 41.522C154.344 41.522 154.096 41.5725 153.847 41.724C153.599 41.825 153.4 42.0271 153.251 42.2291C153.102 42.4312 152.953 42.6838 152.853 42.9363C152.754 43.1889 152.704 43.492 152.704 43.7951H156.58Z" fill="white"/>
<path d="M167.811 48.0887C167.811 48.1392 167.811 48.1897 167.761 48.1897C167.761 48.2402 167.711 48.2402 167.662 48.2907C167.612 48.2907 167.562 48.3412 167.463 48.3412C167.364 48.3412 167.264 48.3412 167.165 48.3412C167.016 48.3412 166.916 48.3412 166.817 48.3412C166.718 48.3412 166.668 48.2907 166.618 48.2907C166.568 48.2907 166.519 48.2402 166.519 48.1897C166.519 48.1392 166.469 48.1392 166.469 48.0887V43.8455C166.469 43.4414 166.419 43.0878 166.37 42.8353C166.32 42.5827 166.221 42.3806 166.072 42.1786C165.972 41.9765 165.773 41.8755 165.624 41.7745C165.426 41.6735 165.227 41.623 164.978 41.623C164.63 41.623 164.332 41.724 163.984 41.9765C163.637 42.2291 163.338 42.5827 162.941 43.0373V48.0887C162.941 48.1392 162.941 48.1897 162.891 48.1897C162.891 48.2402 162.842 48.2402 162.792 48.2907C162.742 48.2907 162.692 48.3412 162.593 48.3412C162.494 48.3412 162.394 48.3412 162.245 48.3412C162.096 48.3412 161.997 48.3412 161.947 48.3412C161.848 48.3412 161.798 48.2907 161.748 48.2907C161.699 48.2907 161.649 48.2402 161.649 48.1897C161.649 48.1392 161.599 48.1392 161.599 48.0887V40.8653C161.599 40.8147 161.599 40.7642 161.599 40.7642C161.599 40.7137 161.649 40.7137 161.699 40.6632C161.748 40.6632 161.798 40.6127 161.897 40.6127C161.947 40.6127 162.046 40.6127 162.196 40.6127C162.295 40.6127 162.394 40.6127 162.494 40.6127C162.593 40.6127 162.643 40.6127 162.692 40.6632C162.742 40.6632 162.742 40.7137 162.792 40.7642C162.792 40.8147 162.842 40.8147 162.842 40.8653V41.825C163.239 41.3704 163.637 41.0168 164.034 40.8147C164.432 40.6127 164.829 40.5117 165.227 40.5117C165.724 40.5117 166.121 40.6127 166.419 40.7642C166.767 40.9158 167.016 41.1683 167.214 41.4209C167.413 41.6735 167.562 42.0271 167.662 42.3807C167.761 42.7343 167.811 43.1889 167.811 43.694V48.0887Z" fill="white"/>
<path d="M175.513 47.5836C175.513 47.7351 175.513 47.8867 175.463 47.9372C175.463 48.0382 175.413 48.0887 175.364 48.1392C175.314 48.1897 175.264 48.2402 175.165 48.2402C175.066 48.2908 174.966 48.2908 174.867 48.3413C174.767 48.3413 174.668 48.3918 174.519 48.3918C174.42 48.3918 174.27 48.3918 174.171 48.3918C173.823 48.3918 173.475 48.3413 173.227 48.2402C172.978 48.1392 172.73 47.9877 172.581 47.7856C172.432 47.5836 172.283 47.331 172.233 47.0279C172.134 46.7249 172.134 46.3713 172.134 45.9166V41.7746H171.14C171.041 41.7746 170.991 41.724 170.941 41.623C170.891 41.522 170.891 41.421 170.891 41.2189C170.891 41.1179 170.891 41.0168 170.891 40.9663C170.891 40.9158 170.941 40.8148 170.941 40.8148C170.941 40.7643 170.991 40.7138 171.041 40.7138C171.09 40.7138 171.09 40.6633 171.14 40.6633H172.134V38.9458C172.134 38.8953 172.134 38.8953 172.183 38.8448C172.183 38.7943 172.233 38.7943 172.283 38.7438C172.333 38.7438 172.382 38.6932 172.482 38.6932C172.581 38.6932 172.68 38.6932 172.78 38.6932C172.929 38.6932 173.028 38.6932 173.128 38.6932C173.227 38.6932 173.277 38.7438 173.326 38.7438C173.376 38.7438 173.426 38.7943 173.426 38.8448C173.426 38.8953 173.475 38.8953 173.475 38.9458V40.6633H175.314C175.364 40.6633 175.413 40.6633 175.413 40.7138C175.463 40.7138 175.463 40.7643 175.513 40.8148C175.513 40.8653 175.562 40.9158 175.562 40.9663C175.562 41.0168 175.562 41.1179 175.562 41.2189C175.562 41.421 175.562 41.5725 175.513 41.623C175.463 41.724 175.413 41.7746 175.314 41.7746H173.475V45.8156C173.475 46.3207 173.525 46.6743 173.674 46.9269C173.823 47.1795 174.072 47.331 174.469 47.331C174.569 47.331 174.718 47.331 174.817 47.2805C174.916 47.2805 175.016 47.23 175.066 47.1795C175.115 47.129 175.215 47.129 175.264 47.0784C175.314 47.0784 175.364 47.0279 175.413 47.0279C175.463 47.0279 175.463 47.0279 175.513 47.0279C175.513 47.0279 175.562 47.0785 175.562 47.129C175.562 47.1795 175.612 47.23 175.612 47.2805C175.513 47.3815 175.513 47.4826 175.513 47.5836Z" fill="white"/>
</svg>
