<svg width="52" height="53" viewBox="0 0 52 53" fill="none" xmlns="http://www.w3.org/2000/svg">
<path d="M52.0001 13.8406C52.0001 14.9519 52.0001 16.0127 52.0001 17.124C51.2547 22.1753 48.8695 26.469 45.8383 30.4595C41.5151 36.117 36.2478 40.6127 30.1357 44.0981C29.3903 44.5528 28.5953 44.9569 27.7505 45.2599C27.3033 45.4115 26.707 45.4115 26.2101 45.3105C25.7131 45.2094 25.564 44.7043 25.9119 44.3002C26.1603 43.9971 26.5082 43.694 26.856 43.492C33.0675 39.8045 38.0367 34.8037 42.0617 28.7421C43.8009 26.0649 45.0432 23.1351 45.5898 19.9528C45.888 18.3363 45.9874 16.6694 45.5898 15.053C44.8445 11.7696 42.7077 10.0016 39.5771 9.29445C37.6888 8.83983 35.7509 9.04189 33.8626 9.34497C29.7382 10.0016 25.7628 9.64805 21.9365 7.72854C20.5949 7.07187 19.2035 6.41519 17.7625 6.01108C14.4828 5.05133 11.3025 5.40493 8.56947 7.72854C6.48241 9.49651 5.24012 11.8201 4.79289 14.5478C3.89844 19.9528 4.99166 24.9536 8.3707 29.3482C8.91731 30.1059 9.66269 30.7121 10.4081 31.3183C11.0044 31.8234 11.0541 31.8234 11.4516 31.0657C13.489 27.5803 16.0232 24.6 19.3029 22.3269C21.6384 20.7105 24.1727 19.5487 27.0051 19.2456C28.0486 19.1445 29.0922 19.094 30.086 19.4981C31.6265 20.1043 32.3718 21.3166 32.1731 22.9836C31.9743 24.9031 30.9805 26.4185 29.7382 27.8328C27.9493 29.9039 25.6138 31.2677 23.2286 32.4296C20.5949 33.6924 17.8618 34.5511 15.0294 35.0057C14.7312 35.0563 14.3834 35.2583 14.1846 35.4604C12.5945 37.0768 11.6504 39.1478 10.905 41.2694C10.1596 43.593 9.76208 45.9671 9.71239 48.3918C9.6627 49.3515 9.71238 50.3618 9.66269 51.3721C9.66269 51.6246 9.613 51.9277 9.46393 52.1803C9.26516 52.6349 8.56947 52.6349 8.4204 52.1803C8.12225 51.2205 7.8241 50.2103 7.72472 49.2C7.12842 44.0476 7.97316 39.0973 10.0105 34.3491C10.1099 34.0965 10.3087 33.8439 9.91115 33.5914C5.83643 31.4193 3.15306 28.0349 1.56293 23.6907C-0.176285 18.9425 -0.524127 14.0427 1.06601 9.14291C2.10954 6.01108 3.84875 3.38439 6.78056 1.66694C8.3707 0.707188 10.1099 0.252567 11.8988 0C13.0914 0 14.2343 0 15.4269 0C18.3588 0.505133 21.0918 1.56591 23.7255 2.87926C27.5517 4.79876 31.5768 5.20287 35.8006 4.69774C37.987 4.44517 40.2231 4.1926 42.4096 4.24312C46.9812 4.34414 50.9565 7.88008 51.851 12.4768C51.851 12.8809 51.9007 13.386 52.0001 13.8406ZM14.9797 32.8337C15.0791 32.8842 15.1288 32.8842 15.1288 32.8842C19.452 32.1265 23.1292 30.2575 26.1107 26.9236C26.856 26.0649 27.353 25.1051 27.4026 23.9433C27.4026 22.731 26.5082 21.9733 25.3156 22.1753C24.2224 22.3774 23.2782 22.832 22.3838 23.4887C20.4955 24.802 19.1041 26.5195 17.8618 28.439C16.868 29.8029 15.9735 31.3183 14.9797 32.8337Z" fill="#99C33C"/>
</svg>
